<svg width="232.000000pt" height="129.000000pt" viewBox="0 0 232.000000 129.000000" xmlns="http://www.w3.org/2000/svg">
  <g transform="translate(0.000000,129.000000) scale(0.100000,-0.100000)" fill="#fefefe" stroke="none">
    <path d="M0 645 l0 -645 1160 0 1160 0 0 645 0 645 -1160 0 -1160 0 0 -645z
m412 81 c14 -12 28 -30 30 -41 2 -11 11 -21 20 -23 l18 -3 11 27 10 28 7 -10
c7 -11 47 -23 87 -27 l20 -2 -1 20 c-1 11 -4 27 -8 37 l-7 16 18 4 18 4 18
-20 c9 -10 17 -32 17 -48 l0 -28 14 0 c8 0 16 7 20 15 l5 15 45 0 44 0 6 -15
c6 -15 36 -21 36 -7 0 4 15 15 34 23 l35 16 13 -8 c7 -5 23 -9 36 -9 12 0 22
-4 22 -10 0 -14 37 -12 47 3 9 13 65 18 73 7 3 -4 20 -11 38 -15 l32 -7 0 15
c0 8 10 18 22 24 l21 9 34 -17 33 -17 60 5 60 6 21 -27 20 -26 29 0 c16 0 32
5 35 10 3 6 15 10 26 10 l19 0 0 28 0 28 19 15 c10 9 38 19 63 23 l46 7 37
-36 c21 -19 43 -35 49 -34 6 1 37 1 68 0 l57 -1 15 -15 c8 -8 22 -15 31 -15 9
0 23 7 31 15 17 17 61 20 83 6 l14 -9 1 -61 2 -62 -24 -6 c-13 -3 -27 -15 -32
-27 l-9 -21 0 16 -1 17 -47 11 -47 12 -32 -17 -33 -18 -3 -20 -3 -19 -28 -10
c-15 -5 -34 -6 -42 -3 l-15 5 0 30 c0 16 5 33 10 36 6 3 10 17 10 31 l0 24
-16 0 c-9 0 -18 -9 -21 -20 -3 -11 -8 -20 -12 -20 -3 0 -27 -7 -53 -14 l-46
-14 -40 34 -40 34 -60 0 -61 0 -3 -22 -3 -21 -35 -12 -34 -12 -28 11 -27 10
-25 -14 -25 -13 -15 12 -15 12 -95 -5 -96 -5 0 10 c0 5 -9 9 -20 9 l-20 0 0
-14 c0 -7 -9 -25 -21 -40 l-20 -26 -34 0 c-18 0 -40 3 -49 6 l-15 6 11 23 c6
13 8 31 5 39 -8 19 -44 21 -49 4 l-5 -13 -68 2 c-38 1 -77 -3 -88 -9 l-20 -10
-7 12 -8 13 -51 -6 c-58 -7 -101 5 -101 28 l0 15 -19 0 c-11 0 -26 -8 -33 -19
l-13 -19 -50 -6 c-73 -9 -87 -8 -98 3 l-11 11 12 12 c15 15 16 95 0 138 l-11
33 19 14 19 14 55 -7 55 -7 27 -21z" />
    <path d="M310 640 l0 -60 25 0 25 0 0 20 c0 11 5 20 10 20 6 0 10 12 10 26 l0
27 -17 13 c-10 7 -26 14 -35 14 l-18 0 0 -60z" />
    <path d="M1612 688 c-7 -7 -12 -28 -12 -48 0 -20 5 -41 12 -48 18 -18 63 -14
81 6 10 10 17 33 17 51 l0 31 -26 10 c-34 13 -57 13 -72 -2z" />
    <path d="M987 653 c-4 -3 -7 -15 -7 -25 l0 -19 18 3 17 3 3 23 3 22 -14 0 c-7
0 -17 -3 -20 -7z" />
    <path d="M1130 645 c0 -8 7 -15 15 -15 8 0 15 7 15 15 0 8 -7 15 -15 15 -8 0
-15 -7 -15 -15z" />
    <path d="M1230 615 l0 -35 20 0 20 0 0 35 0 35 -20 0 -20 0 0 -35z" />
    <path d="M873 624 c-7 -20 10 -37 33 -32 l19 3 3 23 3 22 -26 0 -26 0 -6 -16z" />
    <path d="M1830 605 l0 -26 18 3 17 3 0 20 0 20 -17 3 -18 3 0 -26z" />
  </g>
  <g transform="translate(0.000000,129.000000) scale(0.100000,-0.100000)" fill="#fdfdee" stroke="none">
    <path d="M1645 800 c3 -5 8 -10 11 -10 2 0 4 5 4 10 0 6 -5 10 -11 10 -5 0 -7
-4 -4 -10z" />
    <path d="M1715 770 c4 -6 11 -8 16 -5 14 9 11 15 -7 15 l-15 0 6 -10z" />
    <path d="M241 751 l-21 -21 11 -23 c7 -12 14 -45 15 -74 l3 -51 -14 -12 -15
-12 11 -19 c5 -10 17 -19 25 -19 8 0 13 -4 10 -9 -7 -11 27 -9 35 3 4 5 28 10
55 12 l47 4 14 20 c16 23 33 26 33 6 0 -8 12 -21 28 -28 l27 -14 25 7 c14 4
37 7 53 8 l27 1 0 -15 c0 -17 9 -19 30 -5 l15 9 7 -17 7 -17 0 21 1 21 75 -1
c41 0 75 -2 75 -5 0 -2 -8 -10 -17 -18 l-18 -15 16 5 16 5 16 -19 c16 -19 36
-23 87 -20 27 2 70 43 70 67 0 8 5 14 10 14 6 0 10 -11 10 -25 0 -14 5 -25 10
-25 6 0 10 7 10 16 l0 16 14 -5 c16 -7 66 14 66 26 l0 9 -39 -7 -40 -7 -13 21
c-7 12 -21 21 -30 21 l-18 0 0 -30 0 -30 -20 -20 -20 -20 -33 0 c-40 0 -51 8
-35 27 l11 14 -11 24 -12 25 -17 0 c-10 0 -27 -7 -37 -15 -27 -21 -60 -19 -81
5 -23 26 -41 25 -48 -1 l-6 -21 -22 4 -22 3 2 95 c1 52 4 96 6 99 2 2 11 1 20
-2 l15 -6 0 -46 0 -45 20 0 c11 0 25 9 32 20 l13 20 32 0 32 0 11 -20 c14 -26
36 -26 50 0 l11 21 57 -3 57 -3 1 -30 c1 -49 3 -55 19 -55 19 0 38 37 32 61
l-5 19 24 6 c13 3 35 4 47 0 l24 -6 11 -38 c17 -55 15 -83 -5 -98 -23 -16 -11
-29 15 -15 26 14 69 14 77 1 8 -14 48 -13 62 1 l12 12 28 -12 28 -12 40 14 40
14 5 19 5 20 48 3 47 3 42 -36 c23 -20 45 -36 48 -36 4 0 28 6 53 14 l46 14
12 -14 11 -14 -6 -25 -6 -25 26 -6 c14 -4 40 -2 57 3 l32 9 3 19 c1 11 16 28
32 37 l29 16 40 -10 40 -10 -6 -14 -5 -14 21 0 21 0 0 15 0 15 40 16 c22 9 40
20 40 26 0 5 -4 7 -9 3 l-10 -6 -7 36 -6 35 13 16 13 16 -23 19 -23 19 -38 0
-39 0 -15 -15 c-16 -17 -36 -20 -36 -6 0 15 -41 25 -87 22 l-43 -3 -6 16 c-8
20 -24 21 -24 2 l0 -13 -37 34 -36 35 -55 -7 c-29 -4 -62 -14 -73 -23 l-19
-16 0 -28 0 -28 -19 0 c-11 0 -23 -4 -26 -10 -11 -18 -43 -10 -65 17 l-21 26
-42 -1 c-23 0 -55 -2 -70 -3 l-29 -1 -28 20 -27 21 -12 -12 c-6 -6 -11 -8 -11
-3 0 4 -7 1 -15 -8 -8 -8 -15 -19 -15 -24 0 -5 -11 -7 -25 -4 -14 2 -25 8 -25
12 0 5 -20 8 -45 8 l-44 -1 -5 -14 c-7 -18 -26 -17 -26 2 l0 15 -24 -6 -24 -6
-13 15 -14 14 -40 -20 c-22 -12 -42 -24 -45 -29 -3 -4 -13 1 -23 12 l-16 20
-30 -6 -29 -6 -7 12 -7 12 -20 -29 -19 -28 3 30 3 30 -22 23 -22 22 -23 -4
-23 -3 1 -24 c0 -13 3 -31 5 -39 l4 -15 -15 4 c-8 2 -26 6 -40 9 -14 3 -28 10
-32 16 l-7 11 -18 -11 c-10 -6 -18 -16 -18 -23 0 -6 -4 -11 -10 -11 -5 0 -10
6 -10 14 0 7 -14 24 -30 38 l-30 26 -67 7 -66 7 -21 -21z m149 -25 c14 -6 31
-26 39 -43 l15 -33 17 0 c9 0 22 7 29 15 17 20 63 19 83 -2 l15 -18 -5 -47 -5
-46 -22 -6 c-37 -10 -50 -7 -80 19 -16 14 -35 25 -42 25 -7 0 -19 -8 -26 -19
l-13 -18 -57 -10 -56 -10 -17 9 -16 10 12 14 12 14 -6 80 c-3 43 -2 81 1 85 8
8 91 -5 122 -19z m1316 -4 c12 -9 24 -25 27 -34 l6 -17 74 6 75 6 13 -22 c8
-11 20 -21 27 -21 6 0 20 9 29 20 l17 20 33 0 c17 0 35 -5 39 -12 5 -7 8 -33
9 -58 l1 -45 -16 -12 c-19 -15 -58 -16 -98 -2 l-32 11 -39 -19 -40 -18 -3 -20
-3 -20 -25 0 -25 0 3 42 c4 48 -4 83 -19 83 -6 0 -25 -16 -43 -35 l-33 -35
-36 0 -36 0 -33 33 -33 32 -70 0 -70 -1 0 -22 c0 -12 -5 -26 -11 -32 -17 -17
-59 -15 -87 5 l-26 20 -1 37 0 37 22 15 c12 9 35 16 51 16 l28 0 23 -25 23
-25 55 0 56 0 12 33 c7 17 25 42 39 54 l26 23 35 0 35 0 21 -18z m-477 -33
l20 -22 -15 -15 -15 -15 3 -31 3 -31 23 -3 c12 -2 22 -6 22 -8 0 -3 -6 -11
-13 -19 l-13 -13 -20 11 c-28 15 -34 27 -34 69 l0 36 -12 4 -13 5 18 17 c9 10
17 22 17 27 0 14 7 11 29 -12z m-227 -61 l-12 -12 0 10 c0 14 12 26 19 19 2
-3 -1 -11 -7 -17z m256 -13 c0 -14 -4 -25 -9 -25 -5 0 -9 11 -9 25 0 14 4 25
9 25 5 0 9 -11 9 -25z m493 -68 l-11 -11 0 15 c0 20 13 34 18 19 3 -7 -1 -17
-7 -23z m-906 -7 c3 -5 1 -18 -4 -27 -6 -10 -11 -13 -11 -6 0 6 -3 18 -6 27
l-6 16 10 0 c6 0 14 -4 17 -10z" />
    <path d="M306 694 c-8 -20 -8 -88 0 -108 8 -20 33 -20 62 0 l22 15 0 38 0 38
-18 16 c-23 21 -58 22 -66 1z m47 -18 c9 -7 17 -22 17 -32 l0 -19 -10 15 -10
15 -1 -15 c-1 -8 -1 -23 0 -32 l2 -18 -14 0 -15 0 1 50 c0 28 3 50 6 50 3 0
14 -7 24 -14z" />
    <path d="M1606 691 l-17 -19 3 -43 3 -44 28 -9 28 -10 27 15 27 15 3 47 3 47
-26 10 c-39 15 -60 12 -79 -9z m68 -11 l25 -9 -1 -23 c-3 -46 -48 -74 -76 -46
-23 23 -9 88 19 88 4 0 19 -4 33 -10z" />
    <path d="M1650 650 l0 -20 15 0 c17 0 18 2 9 24 -9 23 -24 20 -24 -4z" />
    <path d="M1827 643 c-4 -3 -7 -21 -7 -40 l0 -33 25 0 26 0 5 15 c4 8 3 26 0
40 l-6 25 -19 0 c-10 0 -21 -3 -24 -7z m28 -32 c3 -5 1 -12 -5 -16 l-10 -6 0
15 c0 18 6 21 15 7z" />
    <path d="M1340 585 l0 -15 20 0 20 0 0 15 0 15 -20 0 -20 0 0 -15z" />
    <path d="M450 760 c0 -5 5 -10 10 -10 6 0 10 5 10 10 0 6 -4 10 -10 10 -5 0
-10 -4 -10 -10z" />
    <path d="M1120 740 c0 -7 3 -10 7 -7 3 4 3 10 0 14 -4 3 -7 0 -7 -7z" />
    <path d="M883 643 c-7 -2 -13 -18 -13 -34 l0 -29 30 0 30 0 6 24 c3 14 3 30
-1 35 -6 11 -31 13 -52 4z m37 -22 c0 -14 -18 -23 -30 -16 -6 4 -8 11 -5 16 8
12 35 12 35 0z" />
    <path d="M2090 635 c0 -8 5 -15 10 -15 6 0 10 7 10 15 0 8 -4 15 -10 15 -5 0
-10 -7 -10 -15z" />
    <path d="M750 585 c0 -8 7 -15 15 -15 8 0 15 7 15 15 0 8 -7 15 -15 15 -8 0
-15 -7 -15 -15z" />
    <path d="M1510 550 l0 -22 13 5 c6 2 12 10 12 17 0 7 -6 15 -12 18 l-13 4 0
-22z" />
    <path d="M1680 501 c0 -11 26 -22 34 -14 12 12 5 23 -14 23 -11 0 -20 -4 -20
-9z" />
    <path d="M1900 500 c0 -5 5 -10 10 -10 6 0 10 5 10 10 0 6 -4 10 -10 10 -5 0
-10 -4 -10 -10z" />
    <path d="M343 493 c4 -3 10 -3 14 0 3 4 0 7 -7 7 -7 0 -10 -3 -7 -7z" />
  </g>
  <g transform="translate(0.000000,129.000000) scale(0.100000,-0.100000)" fill="#fefce2" stroke="none">
    <path d="M255 750 l-6 -10 41 0 41 0 -6 10 c-3 6 -19 10 -35 10 -16 0 -32 -4
-35 -10z" />
    <path d="M1625 750 l-6 -10 16 0 16 0 -6 10 c-3 6 -8 10 -10 10 -2 0 -7 -4
-10 -10z" />
    <path d="M1666 753 c-3 -3 10 -17 30 -31 37 -25 64 -21 29 5 -33 24 -52 33
-59 26z" />
    <path d="M360 741 c0 -6 6 -11 13 -11 18 0 53 -39 62 -67 6 -23 35 -33 35 -13
0 6 6 10 14 10 18 0 29 17 21 31 l-7 10 -15 -20 c-8 -12 -18 -21 -23 -21 -5 0
-12 11 -16 24 -7 28 -30 51 -61 60 l-23 7 0 -10z" />
    <path d="M610 745 c-1 -5 -1 -27 0 -47 2 -40 -9 -48 -30 -23 -14 17 -40 20
-40 6 0 -5 9 -12 20 -16 l20 -6 -3 -52 -4 -52 -16 -3 c-9 -2 -17 -8 -17 -13 0
-11 3 -11 34 1 l25 9 6 -9 c4 -6 9 -10 13 -10 12 0 14 173 3 200 -5 14 -10 21
-11 15z m-4 -173 c-13 -12 -17 8 -10 40 l9 33 3 -33 c2 -19 1 -36 -2 -40z" />
    <path d="M640 743 c0 -5 4 -15 10 -23 11 -18 25 -7 17 15 -6 15 -27 21 -27 8z" />
    <path d="M1563 718 c-5 -7 -15 -28 -23 -45 l-12 -33 -46 0 -45 0 -23 25 c-23
25 -54 34 -54 15 0 -5 6 -10 14 -10 8 0 22 -10 30 -22 l15 -22 -10 -13 -11
-13 -32 3 -31 2 -3 -22 -3 -23 24 0 c13 0 35 8 48 19 13 10 30 16 38 13 l14
-5 -6 17 -6 16 42 -1 c23 0 36 -3 30 -6 -20 -7 -15 -25 5 -21 l18 3 38 -37
c21 -21 43 -35 47 -32 12 7 2 24 -14 24 -7 1 -24 18 -38 38 l-26 37 10 30 c5
17 16 37 23 46 8 8 14 19 14 22 0 11 -17 8 -27 -5z m-196 -135 c-4 -3 -10 -3
-14 0 -3 4 0 7 7 7 7 0 10 -3 7 -7z" />
    <path d="M253 695 c5 -37 17 -42 17 -7 0 18 -5 32 -10 32 l-11 0 4 -25z" />
    <path d="M313 705 c-7 -8 -13 -20 -13 -27 l1 -13 13 18 c7 9 18 17 23 17 18 0
43 -36 43 -63 l0 -27 -26 -16 -26 -17 -8 13 c-4 7 -6 19 -3 26 2 6 0 15 -6 19
l-11 6 0 -36 0 -36 15 -5 c8 -3 32 4 55 17 l40 23 0 29 0 30 -30 28 c-16 16
-35 29 -42 29 -7 -1 -19 -7 -25 -15z" />
    <path d="M1186 704 c-9 -22 3 -32 14 -14 12 19 12 30 1 30 -5 0 -12 -7 -15
-16z" />
    <path d="M1605 695 l-25 -24 0 -31 c0 -16 5 -30 10 -30 6 0 10 13 10 28 l0 29
19 17 19 17 26 -7 26 -6 0 10 c0 9 -31 21 -53 22 -4 0 -19 -11 -32 -25z" />
    <path d="M1220 697 c0 -7 6 -19 13 -26 l12 -13 -12 -5 c-7 -3 -13 -12 -13 -20
l0 -16 26 26 25 26 -20 20 c-24 24 -31 26 -31 8z" />
    <path d="M890 692 l-35 -3 -16 -21 -17 -21 -11 21 -12 22 -24 0 c-14 0 -25 -4
-25 -10 0 -5 9 -10 20 -10 10 0 24 -9 30 -20 12 -23 40 -27 40 -6 0 17 22 26
60 26 16 0 31 4 35 9 8 13 -5 17 -45 13z" />
    <path d="M702 669 l-13 -20 -19 6 -20 6 0 -31 0 -31 16 3 c8 2 23 17 32 33 9
17 20 32 25 33 9 5 9 22 -1 22 -4 0 -13 -9 -20 -21z" />
    <path d="M1020 680 c-8 -5 -12 -11 -10 -13 8 -8 70 5 70 14 0 12 -41 11 -60
-1z" />
    <path d="M1090 680 c0 -5 4 -10 9 -10 11 0 31 -55 31 -86 0 -13 5 -24 10 -24
13 0 13 39 -2 81 -11 32 -24 49 -40 49 -5 0 -8 -4 -8 -10z" />
    <path d="M1289 672 l-22 -19 1 -36 1 -37 -14 0 c-8 0 -15 -4 -15 -10 0 -5 5
-10 10 -10 20 0 9 -19 -12 -23 l-23 -3 18 -9 18 -8 17 21 16 20 27 -20 28 -21
18 8 18 8 -25 6 c-14 4 -35 22 -47 40 l-23 33 21 29 c11 16 27 29 35 29 8 0
14 5 14 10 0 16 -36 11 -61 -8z" />
    <path d="M1740 671 l0 -13 31 6 c17 3 42 6 55 6 13 0 24 5 24 11 l0 10 -55 -3
-55 -3 0 -14z" />
    <path d="M1870 685 c0 -2 11 -15 25 -29 14 -14 25 -34 25 -46 l0 -20 20 0 20
0 0 20 c0 11 -4 20 -10 20 -5 0 -2 9 7 20 10 11 23 20 30 20 7 0 13 5 13 10 0
18 -35 11 -54 -11 l-18 -21 -14 21 c-8 12 -22 21 -30 21 -8 0 -14 -2 -14 -5z" />
    <path d="M2010 680 c0 -5 9 -10 21 -10 l21 0 -6 -26 c-7 -27 0 -64 12 -64 11
0 11 84 0 98 -12 14 -48 16 -48 2z" />
    <path d="M976 664 c-3 -9 -6 -35 -6 -59 l0 -43 18 2 c9 0 22 13 29 29 l12 27
21 0 20 0 0 15 0 15 -23 0 -24 0 -12 -27 -12 -27 -9 14 -8 13 8 23 9 23 -8 6
c-5 3 -12 -2 -15 -11z" />
    <path d="M1160 650 c0 -5 6 -10 13 -10 l12 0 -15 -11 -15 -11 13 -5 c6 -2 12
-14 12 -26 0 -23 16 -55 23 -47 3 3 0 31 -6 63 l-10 57 -14 0 c-7 0 -13 -4
-13 -10z" />
    <path d="M1700 635 l0 -25 -25 -16 -24 -16 -21 7 -20 6 0 -10 c0 -5 9 -12 20
-16 l19 -6 29 15 c27 14 41 40 42 74 0 6 -4 12 -10 12 -5 0 -10 -11 -10 -25z" />
    <path d="M867 643 c-12 -11 -8 -44 8 -59 8 -9 25 -14 37 -12 l23 3 3 25 3 25
-14 -17 c-8 -10 -22 -18 -31 -18 l-16 0 0 16 c0 9 8 23 18 30 l17 13 -21 1
c-11 0 -24 -3 -27 -7z" />
    <path d="M1744 620 c-4 -16 -10 -30 -15 -30 -5 0 -9 -6 -9 -14 0 -8 -11 -17
-25 -20 -14 -4 -25 -11 -25 -16 0 -20 23 -9 55 24 l32 34 11 -17 11 -16 0 43
1 42 -15 0 -15 0 -6 -30z" />
    <path d="M1816 634 c-9 -24 -7 -54 4 -54 6 0 10 10 10 23 0 13 5 28 12 35 l12
12 -16 0 c-9 0 -19 -7 -22 -16z" />
    <path d="M1865 620 l7 -21 -12 -14 -12 -15 15 0 c9 0 19 5 22 11 9 14 -3 59
-16 59 l-10 0 6 -20z" />
    <path d="M255 621 c-3 -5 -1 -12 5 -16 l10 -6 0 15 c0 18 -6 21 -15 7z" />
    <path d="M507 603 c-4 -3 -7 -12 -7 -20 l0 -13 30 0 30 0 0 14 c0 20 -39 34
-53 19z" />
    <path d="M744 595 c-3 -8 -3 -19 1 -25 l7 -12 24 5 c13 2 24 3 24 1 0 -2 -9
-8 -20 -14 -26 -14 -67 -3 -73 21 -3 10 -13 19 -22 19 l-17 0 -5 -20 c-3 -11
-9 -20 -14 -20 -5 0 -9 -4 -9 -10 0 -19 32 -10 37 11 l6 20 21 -19 c11 -10 28
-22 38 -25 l16 -6 39 20 38 19 12 -16 13 -17 -11 -14 c-13 -15 -5 -43 11 -43
l11 0 -6 20 -6 20 10 0 c19 0 12 25 -16 63 l-28 36 -38 1 -38 0 -5 -15z" />
    <path d="M423 593 c-7 -2 -13 -11 -13 -18 0 -7 -6 -15 -12 -18 -7 -2 -10 -8
-6 -12 4 -4 16 2 26 15 l18 22 18 -17 c21 -22 31 -14 16 14 -11 21 -23 24 -47
14z" />
    <path d="M1970 585 l0 -15 20 0 20 0 0 15 0 15 -20 0 -20 0 0 -15z" />
    <path d="M252 578 c-18 -18 -15 -36 9 -48 l21 -12 16 8 17 7 -25 6 -25 7 3 22
c4 25 1 27 -16 10z" />
    <path d="M1390 555 c-7 -9 -10 -18 -7 -22 8 -7 37 15 37 28 0 14 -16 11 -30
-6z" />
    <path d="M2050 560 c0 -5 -7 -10 -15 -10 -8 0 -15 -4 -15 -10 0 -13 11 -12 33
4 19 15 22 26 7 26 -5 0 -10 -4 -10 -10z" />
    <path d="M1767 528 c-8 -55 8 -54 19 0 l7 32 -11 0 c-5 0 -12 -15 -15 -32z" />
    <path d="M1875 552 c-5 -6 -19 -12 -30 -14 l-19 -3 -6 -25 -6 -24 -24 -6 -25
-6 12 -7 c6 -4 23 -3 37 3 l26 10 0 17 1 18 35 16 35 17 34 -11 c19 -6 38 -7
42 -4 12 12 -6 20 -54 24 l-48 5 -10 -10z" />
    <path d="M340 540 c0 -5 4 -10 9 -10 6 0 13 5 16 10 l6 10 -15 0 c-9 0 -16 -4
-16 -10z" />
    <path d="M1060 539 l0 -11 16 6 c9 4 22 2 29 -4 7 -6 20 -8 29 -4 29 11 17 21
-29 22 l-45 2 0 -11z" />
    <path d="M890 525 c0 -8 7 -15 15 -15 8 0 15 7 15 15 0 8 -7 15 -15 15 -8 0
-15 -7 -15 -15z" />
    <path d="M943 504 c-25 -27 -28 -34 -13 -34 13 0 50 37 50 50 0 16 -13 10 -37
-16z" />
  </g>
  <g transform="translate(0.000000,129.000000) scale(0.100000,-0.100000)" fill="#fefcda" stroke="none">
    <path d="M330 740 c0 -5 12 -10 26 -10 l25 0 -6 10 c-3 6 -15 10 -26 10 -10 0
-19 -4 -19 -10z" />
    <path d="M1595 740 l-6 -10 15 0 c9 0 16 5 16 10 0 6 -4 10 -9 10 -6 0 -13 -4
-16 -10z" />
    <path d="M650 685 l0 -46 10 6 c6 3 10 21 10 40 0 19 -4 37 -10 40 l-10 6 0
-46z" />
    <path d="M307 713 c-4 -3 -7 -13 -7 -21 l0 -15 19 17 19 18 33 -32 34 -31 3
10 c4 13 -22 41 -37 41 -6 0 -11 5 -11 10 0 11 -43 14 -53 3z" />
    <path d="M1202 709 c2 -7 10 -15 17 -17 l14 -4 -5 13 c-2 7 -10 15 -17 17
l-13 5 4 -14z" />
    <path d="M1600 700 c-11 -11 -20 -27 -20 -36 l0 -16 29 31 29 31 24 -8 c29
-11 49 -50 41 -80 -3 -13 -19 -30 -35 -38 l-29 -15 -30 32 c-28 30 -36 28 -23
-5 3 -9 12 -16 20 -16 8 0 14 -4 14 -10 0 -13 33 -13 64 1 l25 12 6 28 c4 16
4 43 0 60 l-7 30 -25 10 c-37 14 -61 11 -83 -11z" />
    <path d="M420 696 c0 -9 5 -16 10 -16 6 0 10 4 10 9 0 6 -4 13 -10 16 l-10 6
0 -15z" />
    <path d="M1550 684 c-5 -16 -14 -36 -19 -45 l-10 -17 21 -18 21 -19 -6 26 c-4
15 -2 41 4 58 6 18 9 35 5 38 -3 3 -10 -7 -16 -23z" />
    <path d="M495 680 l-6 -10 15 0 c9 0 16 5 16 10 0 6 -4 10 -9 10 -6 0 -13 -4
-16 -10z" />
    <path d="M530 680 c0 -5 7 -10 16 -10 l15 0 -6 10 c-3 6 -10 10 -16 10 -5 0
-9 -4 -9 -10z" />
    <path d="M715 680 l-6 -10 15 0 c9 0 16 5 16 10 0 6 -4 10 -9 10 -6 0 -13 -4
-16 -10z" />
    <path d="M765 680 l-6 -10 16 0 16 0 -6 10 c-3 6 -8 10 -10 10 -2 0 -7 -4 -10
-10z" />
    <path d="M890 678 c0 -4 16 -8 35 -8 19 0 35 4 35 10 0 5 -16 9 -35 8 -19 -1
-35 -5 -35 -10z" />
    <path d="M1035 681 c-3 -5 14 -11 38 -13 44 -5 55 -3 43 9 -10 10 -75 13 -81
4z" />
    <path d="M1785 680 l-6 -10 21 0 21 0 -6 10 c-3 6 -10 10 -15 10 -5 0 -12 -4
-15 -10z" />
    <path d="M1835 680 l-6 -10 25 0 c29 0 56 -24 56 -51 0 -10 5 -19 10 -19 6 0
10 5 10 10 0 22 22 8 31 -20 l11 -30 24 0 24 0 0 19 0 19 -30 7 -30 7 0 24 0
25 -16 -9 -16 -9 -24 24 c-24 24 -58 30 -69 13z m162 -97 c-4 -3 -10 -3 -14 0
-3 4 0 7 7 7 7 0 10 -3 7 -7z" />
    <path d="M1985 680 l-6 -10 15 0 c9 0 16 5 16 10 0 6 -4 10 -9 10 -6 0 -13 -4
-16 -10z" />
    <path d="M840 665 c-7 -9 -10 -18 -7 -22 8 -7 37 15 37 28 0 14 -16 11 -30 -6z" />
    <path d="M1740 654 c0 -51 -11 -71 -46 -90 -19 -10 -34 -22 -34 -26 0 -11 7
-10 39 7 l28 14 21 43 21 43 1 -27 c0 -16 5 -28 11 -28 l10 0 -3 31 -3 32 -22
15 -23 14 0 -28z" />
    <path d="M290 645 c0 -14 5 -25 10 -25 6 0 10 11 10 25 0 14 -4 25 -10 25 -5
0 -10 -11 -10 -25z" />
    <path d="M460 655 l-12 -15 16 0 c9 0 16 7 16 15 0 8 -2 15 -4 15 -2 0 -9 -7
-16 -15z" />
    <path d="M570 660 c0 -5 5 -10 10 -10 6 0 10 5 10 10 0 6 -4 10 -10 10 -5 0
-10 -4 -10 -10z" />
    <path d="M1160 661 c0 -5 7 -11 15 -15 l15 -5 0 14 c0 8 -7 15 -15 15 -8 0
-15 -4 -15 -9z" />
    <path d="M1286 646 l-18 -28 8 -16 8 -17 4 25 c2 14 9 28 14 31 6 4 9 12 6 19
l-4 13 -18 -27z" />
    <path d="M1404 652 c2 -13 3 -29 0 -36 l-5 -12 -34 4 -35 4 0 -18 0 -18 11 11
c6 6 19 8 30 6 l19 -5 -17 -14 -18 -13 12 -1 c22 0 43 12 43 26 0 8 12 19 26
25 24 9 26 24 4 24 -5 0 -16 9 -25 20 l-16 20 5 -23z" />
    <path d="M500 640 l0 -20 20 0 20 0 0 20 0 20 -20 0 -20 0 0 -20z" />
    <path d="M880 651 c0 -6 8 -11 18 -11 10 0 24 -6 31 -12 l13 -13 -4 20 -3 20
-28 3 -27 3 0 -10z" />
    <path d="M1030 650 c0 -5 7 -10 16 -10 l15 0 -6 -10 -6 -10 15 0 16 0 0 20 0
20 -25 0 c-14 0 -25 -4 -25 -10z" />
    <path d="M1220 644 l0 -16 15 12 c8 7 15 14 15 16 0 2 -7 4 -15 4 -8 0 -15 -7
-15 -16z" />
    <path d="M1337 653 c-4 -3 -7 -12 -7 -20 l0 -13 20 0 20 0 0 20 c0 19 -20 27
-33 13z" />
    <path d="M1823 645 c-7 -8 -13 -20 -13 -27 l1 -13 13 18 c7 9 18 17 24 17 15
0 35 -38 27 -50 -9 -14 -38 -12 -54 3 l-13 12 4 -20 4 -20 37 1 c20 1 37 -3
37 -7 0 -5 11 -9 25 -9 14 0 25 5 25 10 0 6 -11 10 -25 10 l-25 0 0 33 c0 18
-5 38 -12 45 -16 16 -40 15 -55 -3z" />
    <path d="M680 630 c-6 -11 -15 -18 -21 -15 -11 8 -12 -25 0 -44 l9 -13 6 11
c4 6 11 9 15 6 5 -2 8 13 8 35 0 22 -1 40 -3 40 -2 0 -8 -9 -14 -20z" />
    <path d="M740 635 c0 -8 7 -15 15 -15 8 0 15 7 15 15 0 8 -7 15 -15 15 -8 0
-15 -7 -15 -15z" />
    <path d="M1990 635 l0 -15 20 0 20 0 0 15 0 15 -20 0 -20 0 0 -15z" />
    <path d="M580 626 l0 -15 -42 -3 -43 -3 0 -20 0 -20 27 -3 c27 -3 74 15 64 25
-3 3 -1 14 4 24 l10 18 -10 6 c-5 3 -10 -1 -10 -9z m-30 -42 c0 -2 -9 -4 -21
-4 l-20 0 6 10 c5 8 35 3 35 -6z" />
    <path d="M1475 630 l-6 -10 21 0 21 0 -6 10 c-3 6 -10 10 -15 10 -5 0 -12 -4
-15 -10z" />
    <path d="M1015 619 c-4 -6 -5 -13 -2 -16 7 -7 27 6 27 18 0 12 -17 12 -25 -2z" />
    <path d="M767 613 l-38 -4 3 -22 3 -22 40 2 c62 3 65 5 65 30 l0 23 -17 -2
c-10 -1 -35 -3 -56 -5z m29 -30 c-15 -8 -31 -11 -36 -8 -18 11 -2 22 31 22
l31 0 -26 -14z" />
    <path d="M1180 611 c0 -6 5 -13 10 -16 l10 -6 0 15 c0 9 -4 16 -10 16 -5 0
-10 -4 -10 -9z" />
    <path d="M2044 600 c3 -14 6 -31 6 -38 0 -7 5 -10 10 -7 14 9 12 28 -6 51
l-15 19 5 -25z" />
    <path d="M352 588 c-18 -11 -31 -23 -28 -26 10 -9 66 20 66 34 0 17 3 17 -38
-8z" />
    <path d="M860 597 c0 -9 9 -21 19 -27 25 -13 41 -13 41 0 0 6 -5 10 -12 10 -6
0 -20 7 -30 17 l-18 16 0 -16z" />
    <path d="M966 579 c-3 -18 -6 -41 -6 -52 l0 -21 9 10 c12 13 21 83 12 89 -5 2
-11 -9 -15 -26z" />
    <path d="M1490 600 c0 -5 4 -10 9 -10 6 0 13 5 16 10 l6 10 -15 0 c-9 0 -16
-4 -16 -10z" />
    <path d="M420 590 c0 -6 6 -10 13 -8 8 2 25 -10 39 -27 15 -16 30 -27 34 -22
4 4 -2 16 -14 27 -12 12 -22 25 -22 30 0 6 -11 10 -25 10 -14 0 -25 -5 -25
-10z" />
    <path d="M616 591 c-4 -7 -5 -15 -2 -18 9 -9 19 4 14 18 l-4 13 -8 -13z" />
    <path d="M1040 585 l0 -15 20 0 20 0 0 15 0 15 -20 0 -20 0 0 -15z" />
    <path d="M1220 586 c0 -9 7 -19 15 -23 25 -9 27 2 5 22 l-20 18 0 -17z" />
    <path d="M1130 566 c0 -9 5 -16 10 -16 6 0 10 4 10 9 0 6 -4 13 -10 16 l-10 6
0 -15z" />
    <path d="M1773 540 c0 -22 4 -40 8 -40 5 0 9 18 9 40 0 22 -4 40 -9 40 -4 0
-8 -18 -8 -40z" />
    <path d="M1190 561 c0 -12 29 -35 36 -28 4 3 -1 13 -9 22 -17 17 -27 19 -27 6z" />
    <path d="M560 550 c0 -5 4 -10 9 -10 6 0 13 5 16 10 l6 10 -15 0 c-9 0 -16 -4
-16 -10z" />
    <path d="M1080 550 c0 -5 7 -10 15 -10 8 0 15 5 15 10 0 6 -7 10 -15 10 -8 0
-15 -4 -15 -10z" />
    <path d="M1594 545 c22 -17 36 -19 36 -6 0 10 -24 21 -43 21 -7 0 -3 -7 7 -15z" />
    <path d="M255 540 c3 -5 10 -10 16 -10 5 0 9 5 9 10 0 6 -7 10 -16 10 l-15 0
6 -10z" />
    <path d="M320 540 c0 -5 6 -10 14 -10 8 0 18 5 21 10 l6 10 -20 0 c-12 0 -21
-4 -21 -10z" />
    <path d="M615 540 c3 -5 13 -10 21 -10 8 0 14 5 14 10 0 6 -9 10 -21 10 l-20
0 6 -10z" />
    <path d="M760 540 c0 -5 4 -10 9 -10 6 0 13 5 16 10 l6 10 -15 0 c-9 0 -16 -4
-16 -10z" />
    <path d="M862 534 c3 -20 22 -32 51 -33 l17 -1 0 20 0 20 -19 0 c-11 0 -27 3
-36 6 l-17 7 4 -19z" />
    <path d="M1015 540 c3 -5 10 -10 16 -10 5 0 9 5 9 10 0 6 -7 10 -16 10 l-15 0
6 -10z" />
    <path d="M1240 540 c0 -5 4 -10 9 -10 6 0 13 5 16 10 l6 10 -15 0 c-9 0 -16
-4 -16 -10z" />
    <path d="M1315 540 c3 -5 10 -10 16 -10 5 0 9 5 9 10 0 6 -7 10 -16 10 l-15 0
6 -10z" />
    <path d="M1370 540 c0 -5 4 -10 9 -10 6 0 13 5 16 10 l6 10 -15 0 c-9 0 -16
-4 -16 -10z" />
    <path d="M1975 540 c3 -5 17 -10 31 -10 13 0 24 5 24 10 0 6 -14 10 -31 10
l-30 0 6 -10z" />
    <path d="M1810 520 c0 -11 3 -20 8 -20 4 0 13 9 20 20 l12 20 -20 0 -20 0 0
-20z" />
    <path d="M855 480 c3 -5 10 -10 16 -10 5 0 9 5 9 10 0 6 -7 10 -16 10 l-15 0
6 -10z" />
  </g>
  <g transform="translate(0.000000,129.000000) scale(0.100000,-0.100000)" fill="#fdfad3" stroke="none">
    <path d="M320 740 c0 -5 7 -10 16 -10 l15 0 -6 10 c-3 6 -10 10 -16 10 -5 0
-9 -4 -9 -10z" />
    <path d="M632 739 c2 -7 10 -15 17 -17 l14 -4 -5 13 c-2 7 -10 15 -17 17 l-13
5 4 -14z" />
    <path d="M1589 730 l-24 -19 17 -1 c9 0 20 5 23 10 3 6 24 10 46 10 l41 0 18
-22 18 -23 9 8 8 9 -30 24 -30 24 -36 0 -37 0 -23 -20z" />
    <path d="M370 730 c0 -5 9 -10 21 -10 l20 0 -6 10 c-3 6 -13 10 -21 10 -8 0
-14 -4 -14 -10z" />
    <path d="M248 718 l12 -12 0 -68 0 -68 10 0 10 0 0 58 c0 31 -3 67 -6 80 l-6
22 -16 0 -16 0 12 -12z" />
    <path d="M1655 710 c3 -5 10 -10 16 -10 5 0 9 5 9 10 0 6 -7 10 -16 10 l-15 0
6 -10z" />
    <path d="M374 685 c16 -14 31 -25 33 -25 1 0 3 7 3 15 0 8 -7 15 -15 15 -8 0
-15 5 -15 10 0 6 -8 10 -17 10 l-18 0 29 -25z" />
    <path d="M420 693 c0 -19 22 -63 32 -63 15 0 41 30 34 38 -4 3 -12 0 -17 -8
l-11 -15 -4 11 c-3 6 -11 20 -19 30 l-14 19 -1 -12z" />
    <path d="M290 669 l0 -20 10 6 c6 3 10 13 10 21 0 8 -4 14 -10 14 -5 0 -10 -9
-10 -21z" />
    <path d="M950 680 c0 -5 5 -10 10 -10 6 0 10 -8 10 -17 l0 -17 10 10 c14 14 2
44 -16 44 -8 0 -14 -4 -14 -10z" />
    <path d="M550 670 c0 -5 -6 -10 -13 -10 -7 0 -13 -9 -13 -20 0 -11 6 -20 13
-20 7 0 13 9 13 20 0 22 16 27 23 8 2 -7 8 -10 12 -6 4 4 2 14 -5 23 -14 17
-30 20 -30 5z" />
    <path d="M705 670 l-6 -10 15 0 16 0 0 -21 0 -20 17 3 c10 2 19 11 21 21 l3
17 -20 0 c-12 0 -21 5 -21 10 0 6 -4 10 -9 10 -6 0 -13 -4 -16 -10z" />
    <path d="M780 670 c0 -5 7 -10 16 -10 l15 0 -6 10 c-3 6 -10 10 -16 10 -5 0
-9 -4 -9 -10z" />
    <path d="M1393 665 c3 -11 8 -28 12 -37 l7 -18 -23 -1 -24 0 17 -12 16 -11
-16 -13 -17 -12 17 -1 18 0 6 25 c6 26 18 32 29 15 3 -5 19 -10 35 -10 16 0
32 5 35 10 l6 10 -30 0 c-38 0 -61 9 -61 24 0 7 -7 21 -16 32 l-15 19 4 -20z" />
    <path d="M1700 671 c0 -6 5 -13 10 -16 l10 -6 0 15 c0 9 -4 16 -10 16 -5 0
-10 -4 -10 -9z" />
    <path d="M1766 671 c-4 -6 -12 -9 -17 -6 -5 4 -9 -1 -9 -10 l0 -16 10 6 c6 4
17 1 25 -5 l15 -12 0 13 c0 8 -4 20 -9 28 l-8 13 -7 -11z" />
    <path d="M1114 650 c3 -14 6 -28 6 -32 0 -5 5 -8 11 -8 l10 0 -6 23 c-4 12
-12 27 -17 32 l-11 10 7 -25z" />
    <path d="M1543 650 c-3 -11 -9 -20 -14 -20 -5 0 -9 -7 -9 -15 l0 -14 14 5 14
5 6 -19 c8 -24 34 -47 42 -39 4 3 0 13 -7 21 -8 8 -20 22 -27 30 l-12 16 6 25
c3 14 3 25 -1 25 -4 0 -9 -9 -12 -20z" />
    <path d="M1890 660 c0 -5 5 -10 10 -10 6 0 10 5 10 10 0 6 -4 10 -10 10 -5 0
-10 -4 -10 -10z" />
    <path d="M1064 640 c0 -11 6 -20 13 -20 7 0 13 9 13 20 0 11 -6 20 -13 20 -7
0 -13 -9 -13 -20z" />
    <path d="M1330 644 l0 -16 17 13 17 14 -7 -17 -6 -18 14 0 15 0 0 20 0 20 -25
0 -25 0 0 -16z" />
    <path d="M1813 645 c-9 -25 2 -27 22 -5 l18 20 -17 0 c-9 0 -19 -7 -23 -15z" />
    <path d="M1987 654 c-4 -4 -7 -13 -7 -21 l0 -13 34 0 c31 0 55 14 44 26 -9 9
-64 15 -71 8z m30 -21 c-4 -3 -10 -3 -14 0 -3 4 0 7 7 7 7 0 10 -3 7 -7z" />
    <path d="M640 623 c0 -28 15 -62 23 -53 2 3 2 22 -1 43 -5 43 -22 50 -22 10z" />
    <path d="M810 629 c0 -9 7 -19 15 -23 l15 -5 0 23 0 23 -15 0 -15 0 0 -18z" />
    <path d="M1286 641 c-4 -7 -5 -15 -2 -18 9 -9 19 4 14 18 l-4 13 -8 -13z" />
    <path d="M1940 640 l-15 -10 13 0 c6 0 12 -7 12 -15 0 -18 -12 -19 -28 -3
l-12 12 0 -16 c0 -9 -3 -23 -6 -31 l-5 -14 20 -6 21 -5 0 15 0 14 22 -6 21 -7
-6 15 -6 15 20 -5 19 -5 0 11 c0 6 -9 11 -20 11 l-21 0 -7 20 -7 19 -15 -9z" />
    <path d="M290 626 c0 -9 5 -16 10 -16 6 0 10 4 10 9 0 6 -4 13 -10 16 l-10 6
0 -15z" />
    <path d="M1210 610 c0 -16 5 -30 10 -30 6 0 10 14 10 30 0 17 -4 30 -10 30 -5
0 -10 -13 -10 -30z" />
    <path d="M960 583 c0 -27 -3 -59 -6 -73 l-7 -25 13 12 c7 6 14 39 17 72 l5 61
-11 0 -11 0 0 -47z" />
    <path d="M1180 621 c0 -6 5 -13 10 -16 l10 -6 0 15 c0 9 -4 16 -10 16 -5 0
-10 -4 -10 -9z" />
    <path d="M1706 621 c-4 -7 -5 -15 -2 -18 9 -9 19 4 14 18 l-4 13 -8 -13z" />
    <path d="M393 613 c-18 -7 -16 -23 2 -23 8 0 15 7 15 15 0 8 -1 15 -2 14 -2 0
-9 -3 -15 -6z" />
    <path d="M557 613 c-9 -2 -15 -8 -12 -13 6 -10 45 -1 45 11 0 9 -4 10 -33 2z" />
    <path d="M430 600 c0 -5 7 -10 15 -10 8 0 15 -4 15 -10 0 -5 10 -18 22 -30 23
-21 63 -27 73 -10 l6 10 -35 0 c-20 0 -36 4 -36 8 0 14 -36 52 -49 52 -6 0
-11 -4 -11 -10z" />
    <path d="M490 594 l0 -16 15 12 c8 7 15 14 15 16 0 2 -7 4 -15 4 -8 0 -15 -7
-15 -16z" />
    <path d="M680 601 c0 -6 5 -13 10 -16 l10 -6 0 15 c0 9 -4 16 -10 16 -5 0 -10
-4 -10 -9z" />
    <path d="M1006 601 c-4 -7 -5 -15 -2 -18 9 -9 19 4 14 18 l-4 13 -8 -13z" />
    <path d="M1046 594 c-11 -28 -7 -35 17 -32 l22 3 3 23 3 22 -19 0 c-11 0 -23
-7 -26 -16z m21 -11 c-4 -3 -10 -3 -14 0 -3 4 0 7 7 7 7 0 10 -3 7 -7z" />
    <path d="M1773 594 c-3 -8 -1 -20 6 -27 l11 -11 0 27 c0 30 -7 35 -17 11z" />
    <path d="M921 586 c-7 -8 -19 -12 -27 -9 -8 3 -14 0 -14 -6 0 -6 11 -11 25
-11 l26 0 6 15 c8 22 -2 28 -16 11z" />
    <path d="M1120 585 c0 -8 5 -15 10 -15 6 0 10 7 10 15 0 8 -4 15 -10 15 -5 0
-10 -7 -10 -15z" />
    <path d="M1280 592 c0 -5 7 -17 15 -28 15 -19 20 -8 9 20 -6 17 -24 22 -24 8z" />
    <path d="M1320 580 l0 -20 14 0 14 0 -5 20 c-3 11 -9 20 -14 20 -5 0 -9 -9 -9
-20z" />
    <path d="M300 576 l0 -16 30 0 c17 0 30 -4 30 -10 0 -16 36 -12 51 6 l14 17
-33 -7 -32 -8 0 12 0 12 -16 -6 c-9 -4 -23 -1 -30 5 l-14 11 0 -16z" />
    <path d="M616 581 c-4 -7 -5 -15 -2 -18 9 -9 19 4 14 18 l-4 13 -8 -13z" />
    <path d="M830 581 c0 -6 5 -13 10 -16 l10 -6 0 15 c0 9 -4 16 -10 16 -5 0 -10
-4 -10 -9z" />
    <path d="M1602 578 c3 -7 13 -15 24 -17 l18 -3 -13 16 c-16 19 -34 21 -29 4z" />
    <path d="M2042 569 c-15 -23 -15 -29 -2 -29 13 0 32 38 22 44 -4 2 -13 -4 -20
-15z" />
    <path d="M1855 570 l-6 -10 15 0 c9 0 16 5 16 10 0 6 -4 10 -9 10 -6 0 -13 -4
-16 -10z" />
    <path d="M1200 550 c0 -5 5 -10 10 -10 6 0 10 5 10 10 0 6 -4 10 -10 10 -5 0
-10 -4 -10 -10z" />
    <path d="M265 540 c3 -5 19 -10 35 -10 16 0 32 5 35 10 l6 10 -41 0 -41 0 6
-10z" />
    <path d="M635 540 c4 -6 11 -8 16 -5 14 9 11 15 -7 15 l-15 0 6 -10z" />
    <path d="M725 540 c3 -5 15 -10 25 -10 10 0 22 5 25 10 l6 10 -31 0 -31 0 6
-10z" />
    <path d="M865 540 c3 -5 17 -10 30 -10 13 0 25 -6 28 -12 2 -7 8 -10 12 -6 4
4 5 14 2 23 l-6 15 -36 0 -36 0 6 -10z" />
    <path d="M1030 540 c0 -5 9 -10 19 -10 11 0 23 5 26 10 l6 10 -25 0 c-14 0
-26 -4 -26 -10z" />
    <path d="M1120 540 c0 -5 4 -10 9 -10 6 0 13 5 16 10 l6 10 -15 0 c-9 0 -16
-4 -16 -10z" />
    <path d="M1230 540 c0 -5 4 -10 9 -10 6 0 13 5 16 10 l6 10 -15 0 c-9 0 -16
-4 -16 -10z" />
    <path d="M1325 540 c3 -5 17 -10 30 -10 13 0 27 5 30 10 l6 10 -36 0 -36 0 6
-10z" />
    <path d="M1615 540 c3 -5 10 -10 16 -10 5 0 9 5 9 10 0 6 -7 10 -16 10 l-15 0
6 -10z" />
    <path d="M1860 540 c0 -5 4 -10 9 -10 6 0 13 5 16 10 l6 10 -15 0 c-9 0 -16
-4 -16 -10z" />
    <path d="M847 505 c-4 -8 -1 -18 5 -21 l12 -8 4 12 c2 7 13 12 23 12 l20 0 -6
10 c-9 15 -52 12 -58 -5z" />
    <path d="M1810 506 l0 -16 -20 0 c-11 0 -20 -4 -20 -10 0 -15 46 -12 59 4 l11
13 -15 13 -15 12 0 -16z" />
  </g>
  <g transform="translate(0.000000,129.000000) scale(0.100000,-0.100000)" fill="#fdfacb" stroke="none">
    <path d="M260 740 l0 -10 41 0 40 0 -6 10 c-3 6 -22 10 -41 10 -19 0 -34 -4
-34 -10z" />
    <path d="M1615 740 l-6 -10 15 0 c9 0 16 5 16 10 0 6 -4 10 -9 10 -6 0 -13 -4
-16 -10z" />
    <path d="M1655 740 l-6 -10 15 0 c9 0 16 5 16 10 0 6 -4 10 -9 10 -6 0 -13 -4
-16 -10z" />
    <path d="M390 720 c0 -5 7 -10 16 -10 l15 0 -6 10 c-3 6 -10 10 -16 10 -5 0
-9 -4 -9 -10z" />
    <path d="M260 706 c0 -8 5 -18 10 -21 l10 -6 0 20 c0 12 -4 21 -10 21 -5 0
-10 -6 -10 -14z" />
    <path d="M294 705 c-3 -8 -4 -20 -2 -26 l4 -12 17 27 17 26 -15 0 c-9 0 -18
-7 -21 -15z" />
    <path d="M345 710 c3 -5 10 -10 16 -10 5 0 9 5 9 10 0 6 -7 10 -16 10 l-15 0
6 -10z" />
    <path d="M618 650 l4 -71 -12 -14 -12 -15 16 0 c9 0 16 7 16 15 0 18 17 20 23
3 2 -7 8 -10 12 -6 4 4 0 19 -9 33 l-16 25 12 20 13 21 -15 9 -15 10 13 0 c18
0 15 27 -4 34 -9 3 -19 6 -22 6 -4 0 -5 -32 -4 -70z" />
    <path d="M1565 710 l-9 -14 12 -4 11 -3 -6 -30 -5 -29 10 0 c12 0 23 53 13 60
-5 3 -10 12 -13 20 l-4 14 -9 -14z" />
    <path d="M1610 710 c0 -5 4 -10 9 -10 6 0 13 5 16 10 l6 10 -15 0 c-9 0 -16
-4 -16 -10z" />
    <path d="M1665 710 c3 -5 10 -10 16 -10 5 0 9 5 9 10 0 6 -7 10 -16 10 l-15 0
6 -10z" />
    <path d="M1210 695 c0 -8 7 -15 16 -15 l16 0 -12 15 c-7 8 -14 15 -16 15 -2 0
-4 -7 -4 -15z" />
    <path d="M1180 685 l-12 -15 16 0 c9 0 16 7 16 15 0 8 -2 15 -4 15 -2 0 -9 -7
-16 -15z" />
    <path d="M1700 681 c0 -6 5 -13 10 -16 l10 -6 0 15 c0 9 -4 16 -10 16 -5 0
-10 -4 -10 -9z" />
    <path d="M1306 671 l-9 -13 13 -8 13 -8 -1 -32 -1 -33 12 12 c6 6 21 11 34 11
30 0 30 18 1 22 l-23 3 1 18 c1 9 -4 17 -11 17 -7 0 -15 5 -17 12 l-4 12 -8
-13z" />
    <path d="M434 648 l6 -27 -10 -6 c-5 -3 -10 -14 -10 -23 l0 -16 12 12 12 12
13 -11 13 -11 0 18 c0 11 3 30 6 44 l7 25 -13 -12 -13 -12 -14 17 -14 17 5
-27z" />
    <path d="M883 660 c-13 -5 -23 -17 -23 -26 l0 -17 20 18 19 17 16 -5 15 -6 0
-31 0 -31 -15 -6 -16 -5 -19 17 -20 18 0 -16 c0 -8 -6 -17 -12 -19 l-13 -5 28
-18 c15 -10 31 -15 35 -11 3 4 0 11 -8 16 -8 6 -10 10 -4 10 15 0 46 -35 37
-43 -3 -4 -15 -7 -25 -7 l-18 0 0 -20 0 -20 18 0 c10 0 24 11 31 24 l13 24 -7
31 -7 31 11 0 c14 0 14 45 1 71 -12 21 -23 23 -57 9z" />
    <path d="M400 635 c0 -14 5 -25 10 -25 6 0 10 11 10 25 0 14 -4 25 -10 25 -5
0 -10 -11 -10 -25z" />
    <path d="M533 630 l-2 -30 14 0 15 0 0 30 0 30 -12 0 -13 0 -2 -30z" />
    <path d="M722 615 l0 -45 16 -10 17 -9 -14 -1 -15 0 12 -12 11 -11 16 13 c20
17 19 27 -5 33 -29 7 -25 27 6 27 l26 0 -6 16 c-3 9 -6 22 -6 30 l0 14 -29 0
-29 0 0 -45z m38 25 c0 -5 -4 -10 -10 -10 -5 0 -10 5 -10 10 0 6 5 10 10 10 6
0 10 -4 10 -10z" />
    <path d="M836 648 c-5 -10 -12 -15 -17 -12 -5 3 -9 -2 -9 -11 0 -9 4 -14 9
-11 5 4 11 0 14 -6 8 -22 19 -1 15 29 l-4 28 -8 -17z" />
    <path d="M1076 645 l6 -15 -25 0 c-14 0 -29 -4 -32 -10 -3 -5 -2 -10 3 -10 6
0 8 -9 5 -20 -7 -25 5 -26 23 -3 7 10 16 15 20 11 4 -4 1 -14 -6 -23 l-12 -15
12 0 c8 0 22 -8 32 -17 l18 -17 11 11 11 11 -21 7 -21 6 0 24 c0 13 -6 26 -12
28 l-13 5 13 1 c6 1 12 10 12 21 l0 20 -15 0 -14 0 5 -15z" />
    <path d="M1180 641 c0 -11 5 -23 10 -26 l10 -6 0 25 c0 14 -4 26 -10 26 -5 0
-10 -9 -10 -19z" />
    <path d="M1545 648 c-4 -10 -4 -26 0 -35 l8 -18 4 18 c3 9 3 25 0 35 l-4 17
-8 -17z" />
    <path d="M1865 640 c20 -22 31 -20 22 5 -4 8 -14 15 -23 15 l-17 0 18 -20z" />
    <path d="M1900 646 c0 -9 5 -16 10 -16 6 0 10 4 10 9 0 6 -4 13 -10 16 l-10 6
0 -15z" />
    <path d="M1980 644 l0 -16 15 12 16 13 11 -11 12 -12 -17 0 c-9 0 -17 -4 -17
-9 0 -9 41 -23 48 -16 3 2 2 16 -2 30 l-6 25 -30 0 -30 0 0 -16z" />
    <path d="M960 629 l0 -20 10 6 c6 3 10 13 10 21 0 8 -4 14 -10 14 -5 0 -10 -9
-10 -21z" />
    <path d="M1400 636 c0 -9 5 -16 10 -16 6 0 10 4 10 9 0 6 -4 13 -10 16 l-10 6
0 -15z" />
    <path d="M264 629 c-3 -6 -1 -16 5 -22 l11 -11 0 22 c0 24 -5 28 -16 11z" />
    <path d="M683 624 c-3 -8 -1 -20 6 -27 l11 -11 0 27 c0 30 -7 35 -17 11z" />
    <path d="M290 601 c0 -17 5 -31 10 -31 6 0 10 11 10 24 0 14 -4 28 -10 31
l-10 6 0 -30z" />
    <path d="M1120 596 c0 -20 4 -36 8 -36 12 0 13 58 1 65 l-9 6 0 -35z" />
    <path d="M1954 615 l5 -15 -18 -9 c-10 -6 -21 -7 -25 -4 -3 3 -6 3 -6 -2 0 -4
10 -16 23 -27 l22 -20 3 29 c2 15 8 31 14 34 12 8 2 29 -14 29 -5 0 -8 -7 -4
-15z" />
    <path d="M1580 606 c0 -9 5 -16 10 -16 6 0 10 4 10 9 0 6 -4 13 -10 16 l-10 6
0 -15z" />
    <path d="M1730 604 l0 -15 10 6 c6 3 10 10 10 16 0 5 -4 9 -10 9 -5 0 -10 -7
-10 -16z" />
    <path d="M1800 605 c0 -8 5 -15 10 -15 6 0 10 7 10 15 0 8 -4 15 -10 15 -5 0
-10 -7 -10 -15z" />
    <path d="M1280 601 c0 -6 5 -13 10 -16 l10 -6 0 15 c0 9 -4 16 -10 16 -5 0
-10 -4 -10 -9z" />
    <path d="M1006 591 c-4 -7 -5 -15 -2 -18 9 -9 19 4 14 18 l-4 13 -8 -13z" />
    <path d="M2006 589 c3 -6 0 -15 -7 -20 -17 -10 -5 -23 16 -16 8 4 15 16 15 27
l0 20 -16 0 -15 0 7 -11z" />
    <path d="M260 575 l-12 -15 16 0 c9 0 16 7 16 15 0 8 -2 15 -4 15 -2 0 -9 -7
-16 -15z" />
    <path d="M349 574 l-13 -16 18 3 c11 2 21 10 24 17 5 17 -13 15 -29 -4z" />
    <path d="M1223 571 l5 -21 -11 0 -11 0 12 -12 11 -11 16 13 c8 7 15 15 15 19
0 3 -10 12 -21 20 l-22 13 6 -21z" />
    <path d="M1664 575 l-19 -16 24 3 c14 2 26 9 29 16 5 17 -10 15 -34 -3z" />
    <path d="M1300 561 c0 -6 5 -13 10 -16 l10 -6 0 15 c0 9 -4 16 -10 16 -5 0
-10 -4 -10 -9z" />
    <path d="M1337 555 c-7 -16 8 -29 23 -20 15 9 12 35 -4 35 -8 0 -16 -7 -19
-15z" />
    <path d="M1380 550 c0 -5 4 -10 9 -10 6 0 13 5 16 10 l6 10 -15 0 c-9 0 -16
-4 -16 -10z" />
    <path d="M1594 552 c3 -6 20 -14 37 -17 l31 -7 11 11 11 11 -24 0 c-14 0 -36
3 -49 7 l-24 6 7 -11z" />
    <path d="M278 538 l12 -12 12 12 12 12 -24 0 -24 0 12 -12z" />
    <path d="M1810 537 l0 -14 30 5 c17 2 33 8 36 13 l5 9 -35 0 -36 0 0 -13z" />
    <path d="M1785 480 c4 -6 11 -8 16 -5 14 9 11 15 -7 15 l-15 0 6 -10z" />
  </g>
  <g transform="translate(0.000000,129.000000) scale(0.100000,-0.100000)" fill="#fbf6c3" stroke="none">
    <path d="M275 740 l-6 -10 20 0 c12 0 21 -4 21 -10 0 -5 9 -10 20 -10 11 0 20
5 20 10 0 6 -9 10 -19 10 -11 0 -23 5 -26 10 -3 6 -10 10 -15 10 -5 0 -12 -4
-15 -10z" />
    <path d="M360 730 c0 -5 7 -10 16 -10 l15 0 -6 10 c-3 6 -10 10 -16 10 -5 0
-9 -4 -9 -10z" />
    <path d="M628 733 c-19 -5 -25 -23 -7 -23 5 0 7 -4 4 -10 -3 -5 0 -19 8 -31 8
-11 17 -17 20 -12 7 13 6 72 -1 76 -4 2 -15 2 -24 0z" />
    <path d="M1595 730 l-6 -10 15 0 c9 0 16 5 16 10 0 6 -4 10 -9 10 -6 0 -13 -4
-16 -10z" />
    <path d="M1630 720 c0 -5 9 -10 20 -10 11 0 20 5 20 10 0 6 -9 10 -20 10 -11
0 -20 -4 -20 -10z" />
    <path d="M360 706 c0 -2 7 -9 15 -16 l15 -12 0 16 c0 9 -7 16 -15 16 -8 0 -15
-2 -15 -4z" />
    <path d="M1190 695 c0 -8 5 -15 10 -15 6 0 10 7 10 15 0 8 -4 15 -10 15 -5 0
-10 -7 -10 -15z" />
    <path d="M1590 694 l0 -16 15 12 c8 7 15 14 15 16 0 2 -7 4 -15 4 -8 0 -15 -7
-15 -16z" />
    <path d="M1680 706 c0 -2 7 -9 15 -16 l15 -12 0 16 c0 9 -7 16 -15 16 -8 0
-15 -2 -15 -4z" />
    <path d="M1723 688 c4 -14 3 -28 -1 -30 -5 -2 -12 -18 -15 -35 l-6 -33 9 0 c6
0 10 8 11 18 l1 17 5 -13 c9 -23 23 -1 23 37 l0 39 -17 13 -16 14 6 -27z" />
    <path d="M923 677 c-18 -6 -33 -14 -33 -18 0 -5 15 -6 33 -2 37 7 40 9 36 20
l-4 9 -32 -9z" />
    <path d="M400 666 c0 -8 5 -18 10 -21 l10 -6 0 20 c0 12 -4 21 -10 21 -5 0
-10 -6 -10 -14z" />
    <path d="M479 664 l-11 -14 11 0 c6 0 11 -7 11 -15 l0 -14 41 -11 42 -11 10
10 11 11 -14 0 -15 0 15 10 15 9 -11 11 -11 11 -16 -15 c-17 -18 -47 -21 -47
-6 0 6 7 10 15 10 25 0 17 17 -10 22 l-25 5 -11 -13z" />
    <path d="M851 666 c-17 -21 -25 -83 -11 -91 l10 -6 0 15 c0 9 5 16 10 16 6 0
10 7 10 15 0 8 -5 15 -11 15 l-11 0 12 15 c6 8 10 19 8 26 l-4 11 -13 -16z" />
    <path d="M1090 670 c0 -5 7 -10 16 -10 l15 0 -6 10 c-3 6 -10 10 -16 10 -5 0
-9 -4 -9 -10z" />
    <path d="M1803 631 l-2 -51 10 0 c6 0 9 6 6 13 -2 6 -1 22 4 35 l8 22 21 0
c11 0 20 5 20 10 0 6 -6 10 -12 10 -7 0 -22 3 -33 6 l-20 5 -2 -50z" />
    <path d="M740 661 c0 -6 7 -11 15 -11 24 0 17 -18 -7 -22 l-23 -3 -3 -32 -3
-32 28 -6 c15 -4 33 -8 40 -10 6 -2 17 3 24 11 l12 15 -36 -3 c-39 -2 -64 13
-52 32 l7 12 34 -7 34 -6 0 11 c0 5 -4 10 -9 10 -5 0 -11 10 -13 23 l-3 22
-22 3 -23 3 0 -10z" />
    <path d="M1040 660 c0 -5 9 -10 20 -10 11 0 20 5 20 10 0 6 -9 10 -20 10 -11
0 -20 -4 -20 -10z" />
    <path d="M1213 655 c-8 -23 4 -30 22 -12 19 20 19 27 0 27 -9 0 -18 -7 -22
-15z" />
    <path d="M1340 661 c0 -6 7 -11 15 -11 8 0 15 -4 15 -10 0 -5 -9 -10 -20 -10
-11 0 -20 5 -20 10 0 6 -4 10 -9 10 -14 0 -11 -72 4 -87 16 -16 65 -18 65 -2
0 5 -8 9 -17 8 -33 -3 -43 1 -43 16 0 7 8 18 17 23 l17 10 22 -14 22 -15 6 17
c4 10 2 22 -4 28 l-10 10 -1 -14 c-1 -8 -4 -4 -8 10 l-7 25 -22 3 c-12 2 -22
-1 -22 -7z" />
    <path d="M1770 661 c0 -6 5 -13 10 -16 l10 -6 0 15 c0 9 -4 16 -10 16 -5 0
-10 -4 -10 -9z" />
    <path d="M1885 635 c-10 -60 -13 -65 -35 -65 -11 0 -20 -4 -20 -10 0 -5 -11
-10 -25 -10 l-25 0 0 -19 c0 -10 7 -22 16 -25 23 -9 24 -8 24 14 0 22 12 29
54 34 15 1 32 9 39 16 l12 12 -12 5 c-15 6 -17 33 -3 33 14 0 12 13 -4 35
l-14 20 -7 -40z" />
    <path d="M430 635 l0 -31 20 0 20 0 0 20 c0 11 -3 16 -7 13 -3 -4 -12 1 -19
11 l-13 17 -1 -30z" />
    <path d="M692 640 c-5 -14 -7 -29 -4 -34 7 -12 24 33 18 48 -2 6 -8 0 -14 -14z" />
    <path d="M960 644 l0 -15 10 6 c6 3 10 10 10 16 0 5 -4 9 -10 9 -5 0 -10 -7
-10 -16z" />
    <path d="M930 641 c0 -6 5 -13 10 -16 l10 -6 0 15 c0 9 -4 16 -10 16 -5 0 -10
-4 -10 -9z" />
    <path d="M1283 624 c-3 -8 -1 -20 6 -27 l11 -11 0 27 c0 30 -7 35 -17 11z" />
    <path d="M1547 634 c-7 -7 19 -64 29 -64 4 0 4 9 1 20 -3 11 -1 20 4 20 5 0 9
7 9 15 0 8 -4 15 -10 15 -5 0 -10 -6 -10 -12 l0 -13 -8 13 c-5 7 -11 9 -15 6z" />
    <path d="M386 599 l-30 -29 32 3 c18 2 34 6 37 9 3 3 2 14 -2 26 l-8 20 -29
-29z" />
    <path d="M1066 621 c-4 -5 3 -15 15 -21 l21 -12 -4 18 c-4 20 -23 30 -32 15z" />
    <path d="M1440 620 c0 -5 7 -10 15 -10 8 0 15 5 15 10 0 6 -7 10 -15 10 -8 0
-15 -4 -15 -10z" />
    <path d="M1977 623 c-9 -2 -15 -9 -12 -14 4 -5 17 -6 29 -3 l23 5 17 -16 c9
-10 20 -14 23 -11 9 9 -17 33 -42 39 -11 2 -28 2 -38 0z" />
    <path d="M1015 610 l-6 -10 15 0 c9 0 16 5 16 10 0 6 -4 10 -9 10 -6 0 -13 -4
-16 -10z" />
    <path d="M1190 601 c0 -17 27 -37 37 -27 6 6 -20 46 -29 46 -5 0 -8 -9 -8 -19z" />
    <path d="M478 585 c-3 -14 0 -29 6 -34 15 -12 76 -2 76 13 l0 12 -27 -1 -28 0
1 18 c3 27 -23 20 -28 -8z" />
    <path d="M627 593 c-12 -11 -8 -23 8 -23 8 0 15 -4 15 -10 0 -5 7 -10 15 -10
l15 0 -16 25 c-17 26 -26 30 -37 18z" />
    <path d="M1590 585 c0 -8 7 -15 16 -15 l16 0 -12 15 c-7 8 -14 15 -16 15 -2 0
-4 -7 -4 -15z" />
    <path d="M290 575 c0 -8 7 -15 16 -15 l16 0 -12 15 c-7 8 -14 15 -16 15 -2 0
-4 -7 -4 -15z" />
    <path d="M860 574 l0 -14 31 -7 32 -6 4 -19 c7 -23 23 -24 23 0 l0 17 -45 21
-45 22 0 -14z" />
    <path d="M926 581 c-4 -7 -5 -15 -2 -18 9 -9 19 4 14 18 l-4 13 -8 -13z" />
    <path d="M1030 575 c0 -8 7 -15 16 -15 l16 0 -12 15 c-7 8 -14 15 -16 15 -2 0
-4 -7 -4 -15z" />
    <path d="M1947 575 l-17 -12 24 -13 24 -12 17 9 17 10 -24 15 -24 16 -17 -13z" />
    <path d="M1120 565 c0 -8 7 -15 16 -15 l16 0 -12 15 c-7 8 -14 15 -16 15 -2 0
-4 -7 -4 -15z" />
    <path d="M1688 566 c-10 -7 -18 -16 -18 -20 0 -12 18 -6 41 14 l24 19 -15 0
c-8 0 -23 -6 -32 -13z" />
  </g>
  <g transform="translate(0.000000,129.000000) scale(0.100000,-0.100000)" fill="#ebe1a2" stroke="none">
    <path d="M310 727 c0 -7 9 -13 20 -13 11 0 20 6 20 13 0 7 -9 13 -20 13 -11 0
-20 -6 -20 -13z" />
    <path d="M1603 733 c-27 -10 -11 -23 25 -22 20 1 45 -1 55 -5 l17 -8 0 21 0
21 -42 -1 c-24 0 -49 -3 -55 -6z" />
    <path d="M628 660 c2 -38 8 -70 13 -70 l9 0 0 70 0 70 -12 0 -13 0 3 -70z" />
    <path d="M1200 695 c0 -8 -7 -15 -15 -15 -19 0 -20 -19 -1 -26 l15 -6 -5 -44
-4 -44 18 0 18 0 -2 42 c-1 23 -7 44 -13 46 -16 5 -13 32 4 32 l14 0 -5 15
c-4 8 -10 15 -15 15 -5 0 -9 -7 -9 -15z" />
    <path d="M270 665 l0 -25 15 0 15 0 0 25 0 25 -15 0 -15 0 0 -25z" />
    <path d="M1550 660 l0 -30 14 0 c14 0 29 37 20 52 -3 4 -12 8 -20 8 l-14 0 0
-30z" />
    <path d="M1090 665 c0 -8 7 -15 15 -15 8 0 15 4 15 9 0 5 -7 11 -15 15 l-15 5
0 -14z" />
    <path d="M1830 665 l0 -14 14 5 c14 5 46 -20 46 -37 0 -5 7 -9 15 -9 8 0 15 3
15 6 0 3 -8 19 -17 35 l-17 29 -28 0 -28 0 0 -15z" />
    <path d="M474 653 l-17 -17 12 -4 c13 -4 41 16 41 29 0 14 -17 10 -36 -8z" />
    <path d="M702 650 c-6 -11 -12 -31 -12 -45 l0 -26 15 -5 c8 -4 15 -12 15 -20
l0 -14 25 0 c29 0 34 16 8 24 -10 3 -23 17 -29 31 l-12 24 14 18 c17 23 17 33
1 33 -7 0 -18 -9 -25 -20z" />
    <path d="M770 661 c0 -6 5 -13 10 -16 6 -4 7 -11 4 -17 -7 -11 16 -29 28 -22
13 8 9 34 -6 50 -17 16 -36 19 -36 5z" />
    <path d="M860 655 c0 -8 -4 -15 -10 -15 l-10 0 0 -40 0 -40 19 0 19 0 -10 37
-10 36 16 9 c20 11 21 28 1 28 -8 0 -15 -7 -15 -15z" />
    <path d="M922 658 c6 -18 28 -21 28 -4 0 9 -7 16 -16 16 -9 0 -14 -5 -12 -12z" />
    <path d="M1954 655 c-9 -21 3 -45 21 -45 l15 0 0 30 0 30 -15 0 c-9 0 -18 -7
-21 -15z" />
    <path d="M553 635 l0 -25 18 0 c11 0 19 4 19 9 0 20 -13 41 -25 41 l-12 0 0
-25z" />
    <path d="M1291 638 c-10 -27 -3 -64 15 -79 21 -17 29 -3 16 27 -7 14 -9 36 -6
50 l6 24 -11 0 c-7 0 -15 -10 -20 -22z" />
    <path d="M1380 640 l0 -20 15 0 15 0 0 20 0 20 -15 0 -15 0 0 -20z" />
    <path d="M940 605 l0 -25 15 0 15 0 0 25 0 25 -15 0 -15 0 0 -25z" />
    <path d="M1320 615 l0 -14 15 5 c8 4 12 10 9 15 -8 14 -24 10 -24 -6z" />
    <path d="M1470 615 l0 -15 20 0 20 0 0 15 0 15 -20 0 -20 0 0 -15z" />
    <path d="M1793 593 l6 -36 -16 -34 c-8 -19 -13 -36 -10 -39 3 -3 15 -3 27 1
l21 7 -6 19 -7 20 13 15 12 15 -13 23 c-7 13 -9 29 -6 35 l7 11 -17 0 -17 0 6
-37z" />
    <path d="M393 594 c-26 -30 -29 -44 -9 -44 13 0 56 49 56 64 0 15 -27 3 -47
-20z" />
    <path d="M270 598 c0 -7 -3 -23 -6 -35 l-6 -23 31 0 c17 0 31 5 31 10 0 6 -6
10 -14 10 l-13 0 5 25 4 25 -16 0 c-9 0 -16 -6 -16 -12z" />
    <path d="M1568 604 c-12 -11 5 -42 28 -53 33 -15 44 -14 44 3 0 8 -9 17 -19
21 -11 3 -22 12 -25 20 -5 15 -18 19 -28 9z" />
    <path d="M460 590 c0 -12 42 -51 48 -45 9 9 -21 55 -35 55 -7 0 -13 -4 -13
-10z" />
    <path d="M1006 584 c-9 -22 -8 -24 9 -24 8 0 15 -4 15 -10 0 -5 7 -10 15 -10
8 0 15 7 15 15 0 8 -7 15 -15 15 -8 0 -15 7 -15 15 0 20 -16 19 -24 -1z" />
    <path d="M1686 581 c-10 -11 -16 -25 -14 -31 l3 -10 23 15 c21 16 31 45 14 45
-5 0 -17 -9 -26 -19z" />
    <path d="M1884 585 c-3 -8 -14 -17 -25 -20 -27 -9 -23 -25 6 -25 l25 0 0 15
c0 8 5 15 10 15 6 0 10 7 10 15 0 19 -19 20 -26 0z" />
    <path d="M1110 570 l0 -20 14 0 14 0 -5 20 c-3 11 -9 20 -14 20 -5 0 -9 -9 -9
-20z" />
    <path d="M1950 566 c0 -9 7 -16 16 -16 9 0 14 5 12 12 -6 18 -28 21 -28 4z" />
    <path d="M2023 573 c-17 -6 -17 -33 0 -33 14 0 37 20 37 32 0 9 -18 9 -37 1z" />
    <path d="M930 515 c-7 -9 -10 -19 -6 -22 8 -9 38 9 44 25 5 17 -23 15 -38 -3z" />
  </g>
  <g transform="translate(0.000000,129.000000) scale(0.100000,-0.100000)" fill="#e8e19a" stroke="none">
    <path d="M260 725 l0 -15 29 0 29 0 6 15 5 15 -34 0 -35 0 0 -15z" />
    <path d="M350 730 c0 -13 68 -80 81 -80 30 0 -21 74 -58 85 l-23 6 0 -11z" />
    <path d="M1610 730 c0 -5 -3 -9 -7 -9 -32 5 -51 -24 -32 -47 l12 -14 -17 6
-16 6 0 -28 c0 -16 4 -35 9 -43 l9 -14 13 9 14 8 -13 -16 -12 -15 16 -14 16
-13 8 14 8 13 -13 14 c-22 22 -28 53 -15 83 7 16 20 32 29 35 21 6 24 35 4 35
-7 0 -13 -4 -13 -10z m-15 -160 c3 -5 4 -10 1 -10 -3 0 -8 5 -11 10 -3 6 -4
10 -1 10 3 0 8 -4 11 -10z" />
    <path d="M1663 725 c0 -8 8 -17 18 -20 20 -7 32 -29 34 -65 l2 -25 -20 -22
c-11 -13 -31 -23 -44 -23 l-23 0 0 -15 0 -15 25 0 c14 0 25 5 25 11 0 5 5 7
10 4 6 -3 10 -2 10 3 0 5 9 12 20 15 l20 5 1 19 c0 10 1 33 2 52 l2 34 -26 29
c-29 30 -56 37 -56 13z m24 -12 c-4 -3 -7 0 -7 7 0 7 3 10 7 7 3 -4 3 -10 0
-14z m23 -127 c0 -3 -5 -8 -12 -12 l-11 -7 7 11 c7 12 16 16 16 8z" />
    <path d="M634 715 c4 -24 16 -30 16 -7 0 12 -4 22 -9 22 -5 0 -8 -7 -7 -15z" />
    <path d="M1070 665 c0 -8 5 -15 11 -15 l10 0 -6 -20 -6 -20 16 -6 17 -7 -13
-7 -12 -8 6 -16 c7 -19 34 -32 45 -22 3 4 1 11 -6 15 l-13 8 7 17 7 18 -14 9
-14 9 13 0 c19 0 14 23 -8 43 -25 21 -40 22 -40 2z" />
    <path d="M1782 645 c0 -19 3 -35 7 -35 12 0 28 15 35 34 l7 19 -13 9 c-7 4
-18 8 -24 8 l-12 0 0 -35z" />
    <path d="M1850 671 c0 -5 7 -14 15 -21 15 -12 35 -6 35 12 l0 10 -16 -6 -15
-6 6 10 c3 6 -1 10 -9 10 -9 0 -16 -4 -16 -9z" />
    <path d="M850 655 l-13 -16 11 -11 c14 -14 21 -8 27 21 5 25 -7 27 -25 6z" />
    <path d="M780 635 c0 -8 4 -15 9 -15 5 0 11 7 15 15 l5 15 -14 0 c-8 0 -15 -7
-15 -15z" />
    <path d="M1190 632 c0 -10 6 -19 13 -19 7 0 13 9 13 19 0 10 -6 18 -13 18 -7
0 -13 -8 -13 -18z" />
    <path d="M560 629 c0 -4 7 -9 15 -13 l15 -5 0 13 c0 7 -7 13 -15 13 -8 0 -15
-4 -15 -8z" />
    <path d="M1380 623 c0 -7 7 -13 15 -13 8 0 15 6 15 13 0 8 -7 14 -15 14 -8 0
-15 -6 -15 -14z" />
    <path d="M410 621 c0 -5 7 -11 15 -15 l15 -5 0 14 c0 8 -7 15 -15 15 -8 0 -15
-4 -15 -9z" />
    <path d="M490 615 c0 -8 7 -15 15 -15 8 0 15 7 15 15 0 8 -7 15 -15 15 -8 0
-15 -7 -15 -15z" />
    <path d="M695 621 c-3 -5 -1 -12 5 -16 l10 -6 0 15 c0 18 -6 21 -15 7z" />
    <path d="M1310 615 c0 -8 4 -15 9 -15 5 0 11 7 15 15 l5 15 -14 0 c-8 0 -15
-7 -15 -15z" />
    <path d="M1892 607 c2 -11 9 -22 16 -25 l12 -4 0 25 0 24 -15 0 -16 0 3 -20z" />
    <path d="M270 592 l0 -29 25 -11 25 -12 0 15 c0 8 -4 15 -10 15 -5 0 -10 11
-10 25 l0 25 -15 0 -15 0 0 -28z m17 -9 c-4 -3 -7 0 -7 7 0 7 3 10 7 7 3 -4 3
-10 0 -14z" />
    <path d="M1013 580 l0 -30 14 0 13 0 0 30 0 30 -13 0 -14 0 0 -30z" />
    <path d="M2020 586 c0 -25 25 -43 35 -25 10 15 -5 49 -21 49 l-14 0 0 -24z" />
    <path d="M626 584 c-3 -9 -6 -22 -6 -30 l0 -14 20 0 c22 0 23 3 14 38 -7 26
-19 29 -28 6z" />
    <path d="M940 583 c0 -7 7 -13 15 -13 8 0 15 6 15 13 0 8 -7 14 -15 14 -8 0
-15 -6 -15 -14z" />
    <path d="M1786 575 c-7 -26 1 -55 16 -55 5 0 6 5 3 10 -3 6 -2 10 3 10 14 0
11 48 -3 54 l-13 5 -6 -24z" />
    <path d="M368 579 c-24 -14 -23 -29 3 -29 l20 0 -7 12 -7 11 17 -6 18 -7 -4
12 c-6 17 -20 19 -40 7z" />
    <path d="M1211 570 c-16 -9 -6 -30 15 -30 15 0 20 25 6 34 -4 2 -14 1 -21 -4z" />
    <path d="M1856 555 l-5 -15 13 0 c7 0 13 7 13 15 0 8 -4 15 -8 15 -4 0 -9 -7
-13 -15z" />
    <path d="M939 533 c0 -5 -2 -16 -4 -25 l-3 -18 15 0 15 0 -6 16 -6 15 10 -6
c6 -3 10 1 10 9 0 16 -29 23 -31 9z" />
    <path d="M1783 494 l0 -14 19 0 c10 0 18 6 18 13 0 7 -8 13 -18 14 l-19 2 0
-15z" />
  </g>
  <g transform="translate(0.000000,129.000000) scale(0.100000,-0.100000)" fill="#faf5ba" stroke="none">
    <path d="M260 715 c7 -9 15 -13 17 -11 7 7 -7 26 -19 26 l-10 0 12 -15z" />
    <path d="M340 720 c0 -5 4 -10 8 -10 5 0 19 -9 32 -20 12 -11 27 -17 32 -14 5
3 -8 16 -27 30 -20 13 -38 24 -40 24 -3 0 -5 -4 -5 -10z" />
    <path d="M1625 720 c-24 -9 -39 -27 -48 -55 l-7 -20 15 19 c8 11 15 23 15 26
0 4 11 12 25 18 l25 12 25 -12 c14 -6 28 -22 31 -35 4 -13 10 -23 15 -23 5 0
9 3 9 8 -1 13 -34 49 -57 61 -25 13 -21 12 -48 1z" />
    <path d="M290 704 l0 -16 15 12 c8 7 15 14 15 16 0 2 -7 4 -15 4 -8 0 -15 -7
-15 -16z" />
    <path d="M1210 680 c0 -5 7 -10 15 -10 8 0 15 5 15 10 0 6 -7 10 -15 10 -8 0
-15 -4 -15 -10z" />
    <path d="M1873 665 l-12 -13 20 -18 c10 -9 19 -13 19 -8 0 5 5 2 11 -6 l11
-15 -5 15 c-2 8 -10 14 -17 12 l-12 -3 7 20 c7 24 -6 33 -22 16z" />
    <path d="M540 651 l25 -21 -20 -1 c-44 -3 -48 -4 -53 -18 l-4 -13 33 7 c37 8
48 19 45 44 l-3 16 -24 3 -24 3 25 -20z" />
    <path d="M730 660 c0 -5 4 -10 9 -10 6 0 13 5 16 10 l6 10 -15 0 c-9 0 -16 -4
-16 -10z" />
    <path d="M866 644 l-18 -26 11 -21 12 -22 -5 24 -5 23 26 24 26 24 -14 0 c-8
0 -22 -12 -33 -26z" />
    <path d="M960 654 l0 -16 15 12 c8 7 15 14 15 16 0 2 -7 4 -15 4 -8 0 -15 -7
-15 -16z" />
    <path d="M1074 655 l19 -14 -13 -16 c-14 -17 -3 -20 20 -5 l14 9 -18 20 c-11
12 -24 21 -30 21 -6 0 -2 -7 8 -15z" />
    <path d="M1179 656 c5 -6 11 -20 14 -31 l5 -20 1 31 1 31 -15 0 -15 0 9 -11z" />
    <path d="M1313 654 l-6 -17 18 -13 c22 -17 55 -18 55 -3 0 5 -8 9 -17 8 -10
-1 -25 -1 -33 0 l-15 1 25 20 25 20 -23 0 -23 0 -6 -16z" />
    <path d="M1820 660 c0 -5 5 -10 10 -10 6 0 10 5 10 10 0 6 -4 10 -10 10 -5 0
-10 -4 -10 -10z" />
    <path d="M1976 655 c-7 -20 3 -45 19 -45 18 0 27 -30 14 -46 -14 -17 2 -19 18
-3 6 6 9 18 6 27 l-6 15 11 -7 c7 -4 12 -3 12 2 0 6 -13 15 -30 21 -34 11 -40
31 -10 31 11 0 20 5 20 10 0 6 -11 10 -24 10 l-24 0 -6 -15z" />
    <path d="M713 618 c1 -27 5 -48 9 -48 5 0 8 9 8 20 l0 20 25 0 c14 0 25 5 25
11 l0 11 -17 -6 -17 -7 -18 23 -17 23 2 -47z" />
    <path d="M1780 637 c0 -7 9 -13 20 -14 11 -1 20 3 20 8 0 6 -4 7 -10 4 -5 -3
-10 -1 -10 4 0 6 -4 11 -10 11 -5 0 -10 -6 -10 -13z" />
    <path d="M580 630 c0 -7 3 -10 7 -7 3 4 3 10 0 14 -4 3 -7 0 -7 -7z" />
    <path d="M1455 620 l-6 -9 31 2 c16 1 30 5 30 10 0 11 -48 9 -55 -3z" />
    <path d="M1570 623 c0 -6 13 -25 30 -41 l30 -30 22 6 23 6 -35 7 c-19 4 -36
12 -38 17 -6 18 -31 47 -32 35z" />
    <path d="M1710 620 c0 -13 11 -13 30 0 l15 10 -22 0 c-13 0 -23 -4 -23 -10z" />
    <path d="M426 603 l-7 -18 12 12 c7 7 10 15 7 18 -3 3 -9 -2 -12 -12z" />
    <path d="M1285 610 c3 -5 8 -10 11 -10 3 0 2 5 -1 10 -3 6 -8 10 -11 10 -3 0
-2 -4 1 -10z" />
    <path d="M1010 599 c0 -5 4 -8 9 -5 5 4 11 1 13 -5 l4 -11 13 16 13 16 -26 0
c-14 0 -26 -5 -26 -11z" />
    <path d="M1090 590 l0 -20 -26 0 -25 0 6 -10 c10 -16 36 -12 51 8 16 20 18 42
4 42 -5 0 -10 -9 -10 -20z" />
    <path d="M936 591 c-4 -7 -5 -15 -2 -18 9 -9 19 4 14 18 l-4 13 -8 -13z" />
    <path d="M1689 583 l-14 -18 18 14 c16 13 21 21 13 21 -2 0 -10 -8 -17 -17z" />
    <path d="M1907 593 c-4 -3 -7 -11 -7 -17 l0 -10 12 12 c6 6 9 14 7 17 -3 3 -9
2 -12 -2z" />
    <path d="M640 580 c0 -6 -4 -8 -10 -5 -5 3 -10 1 -10 -4 0 -6 9 -11 20 -11 21
0 27 15 10 25 -5 3 -10 1 -10 -5z" />
    <path d="M338 573 c-16 -2 -28 -9 -28 -14 0 -14 33 -10 54 6 11 8 16 14 10 14
-5 -1 -21 -4 -36 -6z" />
    <path d="M1220 572 c0 -12 19 -26 26 -19 2 2 -2 10 -11 17 l-15 12 0 -10z" />
    <path d="M387 563 c-9 -2 -15 -9 -12 -14 9 -14 22 -11 29 6 3 8 4 14 3 14 -1
-1 -10 -3 -20 -6z" />
    <path d="M1587 559 c7 -7 15 -10 18 -7 3 3 -2 9 -12 12 l-18 7 12 -12z" />
    <path d="M1863 563 c4 -3 10 -3 14 0 3 4 0 7 -7 7 -7 0 -10 -3 -7 -7z" />
    <path d="M920 551 c0 -5 6 -11 13 -14 l12 -4 -19 -22 -19 -21 17 0 17 0 -6 10
c-3 6 -1 10 4 10 6 0 11 11 11 25 l0 25 -15 0 c-8 0 -15 -4 -15 -9z" />
    <path d="M1780 550 c0 -7 3 -10 7 -7 3 4 3 10 0 14 -4 3 -7 0 -7 -7z" />
    <path d="M1805 550 l-6 -10 20 0 c12 0 21 5 21 10 0 6 -6 10 -14 10 -8 0 -18
-4 -21 -10z" />
    <path d="M1780 515 l-12 -15 14 0 c8 0 15 7 15 15 0 8 -1 15 -2 15 -2 0 -8 -7
-15 -15z" />
    <path d="M860 500 c0 -5 9 -10 21 -10 l20 0 -6 10 c-3 6 -13 10 -21 10 -8 0
-14 -4 -14 -10z" />
  </g>
  <g transform="translate(0.000000,129.000000) scale(0.100000,-0.100000)" fill="#e8e1ab" stroke="none">
    <path d="M620 736 c0 -9 7 -16 16 -16 17 0 14 22 -4 28 -7 2 -12 -3 -12 -12z" />
    <path d="M1624 739 c-2 -4 3 -9 11 -13 16 -6 45 2 45 13 0 8 -51 8 -56 0z" />
    <path d="M250 731 c0 -5 6 -11 13 -14 l14 -5 0 14 c0 8 -6 14 -14 14 -7 0 -13
-4 -13 -9z" />
    <path d="M310 736 c0 -2 9 -6 20 -9 11 -3 20 -1 20 4 0 5 -9 9 -20 9 -11 0
-20 -2 -20 -4z" />
    <path d="M492 669 c2 -6 7 -10 11 -10 4 1 16 1 27 1 11 0 20 5 20 10 0 6 -14
10 -31 10 l-31 0 4 -11z" />
    <path d="M730 666 l0 -14 19 5 c10 3 22 0 25 -6 10 -16 36 -14 36 3 0 16 -21
26 -56 26 l-24 0 0 -14z" />
    <path d="M880 668 l0 -14 23 1 c31 2 33 19 2 23 l-25 3 0 -13z" />
    <path d="M960 665 l0 -14 15 5 c8 4 15 10 15 15 0 5 -7 9 -15 9 -8 0 -15 -7
-15 -15z" />
    <path d="M1030 664 l0 -16 16 6 c9 3 20 6 25 6 5 0 9 5 9 10 0 6 -11 10 -25
10 l-25 0 0 -16z" />
    <path d="M1220 667 c0 -8 7 -14 15 -14 8 0 15 6 15 14 0 7 -7 13 -15 13 -8 0
-15 -6 -15 -13z" />
    <path d="M1320 668 l0 -13 35 -1 35 -1 0 14 0 13 -35 0 -35 0 0 -12z" />
    <path d="M1820 664 l0 -16 15 12 c8 7 15 14 15 16 0 2 -7 4 -15 4 -8 0 -15 -7
-15 -16z" />
    <path d="M1955 669 c-4 -6 -5 -13 -2 -16 7 -7 27 6 27 18 0 12 -17 12 -25 -2z" />
    <path d="M2010 672 c0 -12 23 -32 37 -32 18 0 16 27 -3 34 -21 8 -34 8 -34 -2z" />
    <path d="M1106 662 c-3 -6 -1 -14 5 -17 14 -9 20 -2 10 14 l-8 13 -7 -10z" />
    <path d="M1883 657 c0 -8 6 -14 14 -14 l13 0 -11 14 c-6 7 -12 13 -14 13 -1 0
-2 -6 -2 -13z" />
    <path d="M697 647 l-5 -14 14 0 c8 0 14 6 14 14 0 17 -16 17 -23 0z" />
    <path d="M1402 630 c0 -14 2 -19 5 -12 2 6 2 18 0 25 -3 6 -5 1 -5 -13z" />
    <path d="M1950 629 c0 -5 16 -17 35 -26 l35 -17 11 11 11 11 -34 12 c-47 18
-58 20 -58 9z" />
    <path d="M507 614 c6 -15 23 -19 23 -5 0 5 -7 11 -14 14 l-15 6 6 -15z" />
    <path d="M760 620 c-8 -5 -11 -12 -7 -16 4 -4 13 -2 19 4 15 15 7 24 -12 12z" />
    <path d="M797 613 c3 -7 9 -10 14 -7 14 8 11 21 -5 21 l-14 0 5 -14z" />
    <path d="M1083 623 c-17 -6 -17 -20 0 -20 8 0 14 6 14 14 0 7 -1 13 -1 12 -1
0 -7 -3 -13 -6z" />
    <path d="M1346 621 c-3 -5 1 -11 9 -15 8 -3 15 -1 15 4 0 13 -18 22 -24 11z" />
    <path d="M1440 615 c0 -8 7 -15 15 -15 8 0 15 4 15 9 0 5 -7 11 -15 15 l-15 5
0 -14z" />
    <path d="M1496 615 l-5 -15 14 0 c8 0 15 7 15 15 0 8 -4 15 -9 15 -5 0 -11 -7
-15 -15z" />
    <path d="M840 598 l0 -23 10 15 c13 19 13 30 0 30 -5 0 -10 -10 -10 -22z" />
    <path d="M1030 605 l0 -14 15 5 c8 4 15 10 15 15 0 5 -7 9 -15 9 -8 0 -15 -7
-15 -15z" />
    <path d="M1211 604 l1 -19 5 13 c3 7 2 16 -1 19 -3 4 -6 -2 -5 -13z" />
    <path d="M398 598 c-7 -16 -1 -28 13 -28 4 0 10 7 13 16 l6 15 -9 -6 c-5 -3
-11 0 -13 7 l-4 12 -6 -16z" />
    <path d="M690 583 c0 -16 28 -29 38 -18 4 4 1 10 -6 12 -6 3 -10 8 -8 12 3 4
-1 8 -9 8 -8 0 -15 -6 -15 -14z" />
    <path d="M467 574 c6 -17 36 -19 31 -2 -2 6 -11 12 -20 14 l-17 2 6 -14z" />
    <path d="M1290 580 c0 -15 18 -21 24 -8 3 7 3 3 0 -9 l-5 -23 40 0 41 0 0 14
0 15 -22 -4 c-12 -3 -28 1 -36 7 -17 15 -42 19 -42 8z" />
    <path d="M1876 574 c-7 -19 14 -29 25 -13 12 20 11 26 -6 26 -8 0 -16 -6 -19
-13z" />
    <path d="M1946 577 c3 -8 11 -14 18 -14 l14 0 -5 14 c-3 7 -11 13 -19 13 l-13
0 5 -13z" />
    <path d="M770 560 l-25 -20 21 0 c20 0 44 17 44 32 0 13 -13 9 -40 -12z" />
    <path d="M250 555 c0 -8 6 -15 13 -15 8 0 14 7 14 15 0 8 -6 15 -14 15 -7 0
-13 -7 -13 -15z" />
    <path d="M533 563 c-33 -6 -28 -23 7 -23 l30 0 0 15 c0 8 -3 14 -7 14 -5 -1
-18 -4 -30 -6z" />
    <path d="M617 564 c-15 -15 -6 -24 24 -24 l31 0 -4 13 c-5 14 -40 21 -51 11z
m30 -11 c-4 -3 -10 -3 -14 0 -3 4 0 7 7 7 7 0 10 -3 7 -7z" />
    <path d="M860 559 c0 -5 8 -12 18 -17 l17 -10 23 9 c34 13 26 24 -18 25 -22 1
-40 -2 -40 -7z" />
    <path d="M1010 554 c0 -13 35 -22 63 -16 9 2 17 10 17 17 l0 15 -25 -10 c-14
-5 -25 -6 -25 -1 0 4 -7 8 -15 8 -8 0 -15 -6 -15 -13z" />
    <path d="M1234 555 l-19 -14 23 -1 22 0 0 15 c0 8 -1 15 -3 15 -2 0 -12 -7
-23 -15z" />
    <path d="M2008 563 c-24 -6 -23 -23 0 -23 l19 0 0 15 c0 8 -1 14 -1 14 -1 -1
-9 -3 -18 -6z" />
    <path d="M310 550 c0 -5 7 -10 15 -10 8 0 15 5 15 10 0 6 -7 10 -15 10 -8 0
-15 -4 -15 -10z" />
    <path d="M1625 550 l-6 -10 16 0 16 0 -6 10 c-3 6 -8 10 -10 10 -2 0 -7 -4
-10 -10z" />
    <path d="M1840 550 c0 -6 7 -10 15 -10 8 0 15 2 15 4 0 2 -7 6 -15 10 -8 3
-15 1 -15 -4z" />
    <path d="M850 499 c0 -15 27 -26 56 -24 32 2 54 11 54 23 0 4 -25 7 -55 7 -30
0 -55 -3 -55 -6z" />
    <path d="M1802 494 l-13 -14 21 0 c11 0 20 4 20 9 0 17 -15 19 -28 5z" />
  </g>
  <g transform="translate(0.000000,129.000000) scale(0.100000,-0.100000)" fill="#f1e9b3" stroke="none">
    <path d="M1670 741 c0 -5 7 -11 15 -15 8 -3 15 -1 15 3 0 5 -7 11 -15 15 -8 3
-15 1 -15 -3z" />
    <path d="M340 730 c0 -5 4 -10 9 -10 6 0 13 5 16 10 l6 10 -15 0 c-9 0 -16 -4
-16 -10z" />
    <path d="M1613 733 c4 -3 10 -3 14 0 3 4 0 7 -7 7 -7 0 -10 -3 -7 -7z" />
    <path d="M1576 714 c-22 -21 -20 -27 4 -12 11 7 20 16 20 20 0 12 -7 10 -24
-8z" />
    <path d="M400 712 c0 -5 6 -17 14 -27 8 -11 12 -25 9 -32 -3 -7 0 -13 6 -13
14 0 14 21 1 54 -9 24 -30 36 -30 18z" />
    <path d="M1715 710 c3 -5 8 -10 11 -10 3 0 2 5 -1 10 -3 6 -8 10 -11 10 -3 0
-2 -4 1 -10z" />
    <path d="M270 633 c0 -36 3 -64 6 -60 10 10 12 127 3 127 -5 0 -9 -30 -9 -67z" />
    <path d="M710 670 c-8 -5 -11 -12 -7 -16 4 -4 13 -2 19 4 15 15 7 24 -12 12z" />
    <path d="M1083 673 c4 -3 10 -3 14 0 3 4 0 7 -7 7 -7 0 -10 -3 -7 -7z" />
    <path d="M1302 660 c-7 -12 -10 -25 -6 -31 l6 -10 14 18 c15 20 18 43 6 43 -4
0 -13 -9 -20 -20z" />
    <path d="M493 655 c0 -8 4 -12 9 -9 5 3 6 10 3 15 -9 13 -12 11 -12 -6z" />
    <path d="M560 660 c0 -5 5 -10 10 -10 6 0 10 5 10 10 0 6 -4 10 -10 10 -5 0
-10 -4 -10 -10z" />
    <path d="M910 665 c0 -2 6 -8 13 -14 l14 -11 0 13 c0 8 -6 14 -14 14 -7 0 -13
-1 -13 -2z" />
    <path d="M1373 648 c7 -10 13 -14 15 -8 2 6 8 7 14 4 l11 -7 -5 14 c-3 8 -14
14 -26 15 l-20 1 11 -19z" />
    <path d="M1550 643 c0 -16 4 -34 8 -40 l8 -13 -1 40 c0 22 -3 40 -7 40 -5 0
-8 -12 -8 -27z" />
    <path d="M1950 654 l0 -15 10 6 c6 4 8 11 5 16 -9 14 -15 11 -15 -7z" />
    <path d="M2010 665 c0 -2 6 -8 13 -14 l14 -11 0 13 c0 8 -6 14 -14 14 -7 0
-13 -1 -13 -2z" />
    <path d="M1113 635 c0 -8 4 -15 9 -15 4 0 8 7 8 15 0 8 -4 15 -8 15 -5 0 -9
-7 -9 -15z" />
    <path d="M1900 640 c0 -7 3 -10 7 -7 3 4 3 10 0 14 -4 3 -7 0 -7 -7z" />
    <path d="M460 630 c0 -5 5 -10 10 -10 6 0 10 5 10 10 0 6 -4 10 -10 10 -5 0
-10 -4 -10 -10z" />
    <path d="M695 630 c3 -5 8 -10 11 -10 3 0 2 5 -1 10 -3 6 -8 10 -11 10 -3 0
-2 -4 1 -10z" />
    <path d="M580 620 c0 -7 3 -10 7 -7 3 4 3 10 0 14 -4 3 -7 0 -7 -7z" />
    <path d="M940 609 c0 -12 -7 -30 -15 -39 l-15 -17 15 0 15 0 7 36 7 36 7 -25
8 -25 -2 24 c-1 14 -8 26 -14 29 l-13 4 0 -23z" />
    <path d="M404 608 l-7 -11 11 7 c7 4 12 9 12 12 0 8 -9 4 -16 -8z" />
    <path d="M730 616 c0 -2 7 -6 15 -10 8 -3 15 -1 15 4 0 6 -7 10 -15 10 -8 0
-15 -2 -15 -4z" />
    <path d="M1025 610 c-3 -5 -2 -10 4 -10 5 0 13 5 16 10 3 6 2 10 -4 10 -5 0
-13 -4 -16 -10z" />
    <path d="M1455 610 l-6 -10 33 1 33 0 -20 9 c-27 12 -33 12 -40 0z" />
    <path d="M1995 610 c-3 -5 -2 -10 4 -10 5 0 13 5 16 10 3 6 2 10 -4 10 -5 0
-13 -4 -16 -10z" />
    <path d="M460 594 l0 -15 10 6 c5 3 15 -5 22 -19 11 -25 28 -35 28 -17 0 9
-46 61 -55 61 -3 0 -5 -7 -5 -16z" />
    <path d="M1295 589 c-9 -13 23 -49 44 -49 l16 0 -24 13 c-14 6 -27 19 -29 27
l-5 15 24 -20 24 -20 -19 23 c-11 12 -20 22 -22 22 -2 0 -6 -5 -9 -11z" />
    <path d="M2046 585 c4 -8 0 -23 -7 -33 l-14 -17 18 14 c19 15 22 36 7 46 l-10
6 6 -16z" />
    <path d="M1880 583 c0 -7 0 -16 1 -19 0 -4 -5 -11 -13 -15 l-13 -9 17 0 c23 0
31 16 19 37 l-10 18 -1 -12z" />
    <path d="M400 570 c0 -5 5 -10 10 -10 6 0 10 5 10 10 0 6 -4 10 -10 10 -5 0
-10 -4 -10 -10z" />
    <path d="M782 564 l-9 -17 -27 5 c-14 3 -26 1 -26 -3 0 -5 18 -9 39 -9 l39 0
5 15 c9 21 -10 29 -21 9z" />
    <path d="M840 572 c0 -4 9 -13 20 -19 l19 -13 -5 14 c-6 15 -34 30 -34 18z" />
    <path d="M1000 566 c0 -9 5 -16 10 -16 6 0 10 4 10 9 0 6 -4 13 -10 16 l-10 6
0 -15z" />
    <path d="M1084 566 c-4 -9 -5 -19 -2 -21 2 -2 10 0 18 5 l15 9 -12 12 -12 12
-7 -17z" />
    <path d="M1377 560 l-17 -20 13 0 c6 0 19 5 27 10 l15 9 -10 10 -11 11 -17
-20z" />
    <path d="M1570 570 c0 -5 5 -10 11 -10 5 0 7 5 4 10 -3 6 -8 10 -11 10 -2 0
-4 -4 -4 -10z" />
    <path d="M335 560 l-6 -10 15 0 c9 0 16 5 16 10 0 6 -4 10 -9 10 -6 0 -13 -4
-16 -10z" />
    <path d="M1625 560 c3 -5 8 -10 11 -10 2 0 4 5 4 10 0 6 -5 10 -11 10 -5 0 -7
-4 -4 -10z" />
    <path d="M1825 550 c3 -5 10 -10 16 -10 5 0 9 5 9 10 0 6 -7 10 -16 10 l-15 0
6 -10z" />
    <path d="M1663 543 c4 -3 10 -3 14 0 3 4 0 7 -7 7 -7 0 -10 -3 -7 -7z" />
    <path d="M957 523 l6 -16 -11 7 -12 7 7 -16 6 -17 8 14 c12 18 11 38 -1 38
l-9 0 6 -17z" />
    <path d="M850 507 c0 -8 7 -14 15 -14 l15 0 -11 14 c-6 7 -13 13 -15 13 -2 0
-4 -6 -4 -13z" />
    <path d="M1815 500 c3 -5 8 -10 11 -10 3 0 2 5 -1 10 -3 6 -8 10 -11 10 -3 0
-2 -4 1 -10z" />
  </g>
  <g transform="translate(0.000000,129.000000) scale(0.100000,-0.100000)" fill="#f3e7aa" stroke="none">
    <path d="M1670 740 c0 -7 3 -10 7 -7 3 4 3 10 0 14 -4 3 -7 0 -7 -7z" />
    <path d="M1690 731 c0 -5 5 -13 10 -16 6 -3 10 -2 10 4 0 5 -4 13 -10 16 -5 3
-10 2 -10 -4z" />
    <path d="M270 706 c0 -15 18 -31 26 -23 7 7 -7 37 -17 37 -5 0 -9 -6 -9 -14z" />
    <path d="M1593 706 c1 -6 -6 -11 -15 -11 -25 0 -32 -13 -18 -30 7 -8 10 -25 8
-38 l-5 -24 12 0 12 0 -3 24 c-1 13 -8 30 -14 38 l-12 15 14 0 c8 0 22 8 31
18 l17 19 -14 0 c-8 0 -14 -5 -13 -11z" />
    <path d="M950 681 l0 -13 -17 6 -18 7 17 -18 18 -17 12 12 12 12 -12 12 -12
12 0 -13z" />
    <path d="M1183 683 c-18 -7 -16 -20 2 -20 8 0 15 6 15 14 0 7 -1 13 -2 12 -2
0 -9 -3 -15 -6z" />
    <path d="M1716 681 c-4 -7 -5 -15 -2 -18 9 -9 19 4 14 18 l-4 13 -8 -13z" />
    <path d="M1819 673 c-1 -5 -1 -12 0 -16 1 -4 -7 -3 -18 3 -26 13 -31 13 -25
-4 3 -8 14 -16 24 -19 l18 -5 11 24 11 24 -10 0 c-6 0 -11 -3 -11 -7z" />
    <path d="M290 659 c0 -5 -3 -8 -7 -6 -5 3 -9 -6 -9 -19 -1 -13 2 -24 7 -24 5
0 9 -9 9 -21 0 -11 -4 -18 -9 -14 -5 3 -12 1 -16 -5 -3 -5 -1 -10 5 -10 6 0 8
-4 5 -10 -3 -5 -2 -10 4 -10 5 0 12 12 14 28 7 40 8 102 2 102 -3 0 -5 -5 -5
-11z" />
    <path d="M545 660 c3 -5 10 -10 16 -10 5 0 9 5 9 10 0 6 -7 10 -16 10 l-15 0
6 -10z" />
    <path d="M416 644 c-9 -24 -7 -31 9 -31 l15 0 0 18 c0 24 -16 33 -24 13z" />
    <path d="M1875 650 c3 -5 8 -10 11 -10 3 0 2 5 -1 10 -3 6 -8 10 -11 10 -3 0
-2 -4 1 -10z" />
    <path d="M1972 636 c15 -30 16 -30 14 -3 0 13 -6 24 -13 24 l-12 0 11 -21z" />
    <path d="M555 630 c-3 -5 -1 -10 4 -10 6 0 11 5 11 10 0 6 -2 10 -4 10 -3 0
-8 -4 -11 -10z" />
    <path d="M940 632 c0 -5 7 -13 16 -16 l16 -6 -4 12 c-5 15 -28 23 -28 10z" />
    <path d="M1895 628 c-5 -17 -1 -68 5 -61 5 5 7 73 2 73 -1 0 -5 -6 -7 -12z" />
    <path d="M1716 621 c-4 -7 -5 -15 -2 -18 9 -9 19 4 14 18 l-4 13 -8 -13z" />
    <path d="M460 611 c0 -5 6 -14 14 -20 l14 -12 5 15 6 14 -15 6 c-21 8 -24 8
-24 -3z" />
    <path d="M695 599 c-4 -6 -5 -12 -2 -15 2 -3 7 2 10 11 7 17 1 20 -8 4z" />
    <path d="M1097 586 l-6 -14 12 2 c15 2 22 19 9 24 -5 1 -12 -4 -15 -12z" />
    <path d="M1305 590 c3 -5 8 -10 11 -10 2 0 4 5 4 10 0 6 -5 10 -11 10 -5 0 -7
-4 -4 -10z" />
    <path d="M376 582 c-2 -4 4 -8 14 -8 10 0 16 4 14 8 -3 4 -9 8 -14 8 -5 0 -11
-4 -14 -8z" />
    <path d="M840 580 c0 -7 3 -10 7 -7 3 4 3 10 0 14 -4 3 -7 0 -7 -7z" />
    <path d="M952 567 c-7 -16 -12 -35 -12 -43 l0 -15 16 15 15 16 -3 27 -4 28
-12 -28z" />
    <path d="M1595 580 c3 -5 8 -10 11 -10 3 0 2 5 -1 10 -3 6 -8 10 -11 10 -3 0
-2 -4 1 -10z" />
    <path d="M1809 588 c-1 -2 -3 -12 -4 -24 l-2 -21 24 5 24 4 -17 19 c-16 18
-22 22 -25 17z" />
    <path d="M1030 564 l0 -15 10 6 c6 4 8 11 5 16 -9 14 -15 11 -15 -7z" />
    <path d="M1385 559 c-4 -6 -5 -12 -2 -15 2 -3 7 2 10 11 7 17 1 20 -8 4z" />
    <path d="M1950 553 c0 -6 9 -11 20 -10 11 1 20 7 20 14 0 6 -9 11 -20 10 -11
-1 -20 -7 -20 -14z" />
    <path d="M360 552 c0 -5 7 -9 15 -9 8 0 12 4 9 9 -3 4 -9 8 -15 8 -5 0 -9 -4
-9 -8z" />
    <path d="M1107 545 c3 -8 9 -12 14 -9 12 7 11 11 -5 17 l-15 6 6 -14z" />
    <path d="M743 543 c4 -3 10 -3 14 0 3 4 0 7 -7 7 -7 0 -10 -3 -7 -7z" />
    <path d="M1770 500 c0 -5 7 -7 15 -4 8 4 15 8 15 10 0 2 -7 4 -15 4 -8 0 -15
-4 -15 -10z" />
  </g>
  <g transform="translate(0.000000,129.000000) scale(0.100000,-0.100000)" fill="#ecdf92" stroke="none">
    <path d="M275 722 c2 -9 4 -24 4 -31 l1 -15 10 10 c6 6 12 19 14 30 l4 20 -18
1 -18 2 3 -17z" />
    <path d="M1196 693 c-3 -4 -6 -18 -6 -33 l0 -26 20 0 c10 0 17 2 15 4 -2 3 0
12 5 21 l9 17 -19 11 c-10 7 -21 9 -24 6z" />
    <path d="M1560 696 c0 -2 7 -9 15 -16 l15 -12 0 10 c0 5 -7 12 -15 16 -8 3
-15 4 -15 2z" />
    <path d="M1717 676 c-6 -14 0 -26 13 -26 3 0 6 9 7 20 2 23 -12 27 -20 6z" />
    <path d="M947 662 l-17 -18 12 -12 c19 -19 25 -14 30 18 3 17 2 30 -2 30 -4 0
-14 -8 -23 -18z" />
    <path d="M1104 662 c-12 -8 -13 -50 -1 -69 4 -6 4 -19 0 -29 l-6 -17 10 6 c6
4 13 21 17 38 l6 32 -17 14 c-10 8 -13 12 -7 9 6 -3 11 1 11 9 0 8 -1 15 -1
15 -1 0 -6 -4 -12 -8z" />
    <path d="M1782 608 l-3 -58 15 6 c8 3 17 12 20 20 l6 15 -10 -6 -10 -6 0 19
c0 10 3 22 7 26 4 3 7 15 8 25 l2 19 -16 -1 -16 -1 -3 -58z m28 28 c0 -3 -5
-8 -12 -12 l-11 -7 7 11 c7 12 16 16 16 8z" />
    <path d="M410 646 c0 -7 6 -19 14 -25 l13 -11 -5 25 c-5 26 -22 35 -22 11z" />
    <path d="M473 638 c-4 -7 -8 -23 -8 -34 l-1 -22 18 11 c24 16 29 33 13 47
l-13 11 -9 -13z" />
    <path d="M1296 621 l1 -26 14 0 14 0 -1 18 c-2 31 -4 34 -17 34 l-13 0 2 -26z" />
    <path d="M280 626 c0 -8 5 -18 10 -21 6 -3 10 1 10 9 0 8 -4 18 -10 21 -5 3
-10 -1 -10 -9z" />
    <path d="M704 626 l-7 -17 11 -11 11 -11 7 17 7 17 -11 11 -11 11 -7 -17z" />
    <path d="M1717 616 l-6 -14 14 -6 14 -5 -2 20 c-2 22 -13 25 -20 5z" />
    <path d="M636 575 l-5 -15 14 0 14 0 -5 15 c-4 8 -7 15 -9 15 -2 0 -5 -7 -9
-15z" />
    <path d="M934 576 c-6 -15 11 -46 25 -46 13 0 9 39 -5 50 l-14 12 -6 -16z" />
    <path d="M284 565 c-9 -22 1 -29 15 -11 l12 14 -11 7 c-5 3 -13 -1 -16 -10z" />
  </g>
  <g transform="translate(0.000000,129.000000) scale(0.100000,-0.100000)" fill="#e9e3b2" stroke="none">
    <path d="M250 735 l0 -14 15 5 c8 4 12 10 9 15 -8 14 -24 10 -24 -6z" />
    <path d="M610 732 l0 -20 20 5 c24 6 21 26 -3 31 l-17 3 0 -19z" />
    <path d="M1637 739 c7 -7 15 -10 18 -7 3 3 -2 9 -12 12 l-18 7 12 -12z" />
    <path d="M340 730 c0 -5 5 -10 11 -10 5 0 7 5 4 10 -3 6 -8 10 -11 10 -2 0 -4
-4 -4 -10z" />
    <path d="M1196 711 c-4 -5 -2 -12 3 -15 5 -4 12 -2 15 3 4 5 2 12 -3 15 -5 4
-12 2 -15 -3z" />
    <path d="M532 678 c5 -15 28 -23 28 -10 0 5 -7 13 -16 16 l-16 6 4 -12z" />
    <path d="M886 682 c-12 -11 -5 -19 14 -17 28 2 34 12 11 18 -11 2 -22 2 -25
-1z" />
    <path d="M1226 681 c-3 -5 1 -11 9 -15 8 -3 15 -1 15 4 0 13 -18 22 -24 11z" />
    <path d="M1330 682 c-17 -8 -25 -32 -10 -32 6 0 10 4 10 8 0 4 11 8 25 8 14 0
25 -5 25 -10 l0 -10 12 12 c6 6 10 14 7 16 -9 9 -55 15 -69 8z" />
    <path d="M1993 683 c-22 -8 -14 -25 10 -23 12 1 29 2 37 1 l15 -1 -15 -10 c-8
-5 -11 -12 -8 -15 11 -11 28 5 28 26 l0 19 -14 0 c-8 0 -20 2 -28 4 -7 3 -19
2 -25 -1z" />
    <path d="M486 664 l-6 -17 15 13 c17 14 19 20 6 20 -5 0 -12 -7 -15 -16z" />
    <path d="M1020 665 c0 -17 25 -20 35 -5 4 6 10 8 15 5 5 -3 11 -1 15 5 l6 10
-35 0 -36 0 0 -15z" />
    <path d="M1770 671 c0 -6 9 -9 20 -8 11 1 20 5 20 9 0 4 -9 8 -20 8 -11 0 -20
-4 -20 -9z" />
    <path d="M1830 676 c0 -10 28 -13 41 -5 l14 9 -27 0 c-16 0 -28 -2 -28 -4z" />
    <path d="M1951 634 l1 -19 5 13 c3 7 2 16 -1 19 -3 4 -6 -2 -5 -13z" />
    <path d="M520 615 l-12 -15 15 0 c19 0 31 16 18 24 -5 3 -14 -1 -21 -9z" />
    <path d="M1344 618 l-7 -11 11 7 c7 4 12 9 12 12 0 8 -9 4 -16 -8z" />
    <path d="M1435 620 c-8 -13 -1 -24 14 -19 l10 4 -8 14 -8 13 -8 -12z" />
    <path d="M1503 615 c0 -8 6 -15 14 -15 7 0 13 7 13 15 0 8 -6 15 -13 15 -8 0
-14 -7 -14 -15z" />
    <path d="M750 610 c0 -5 5 -10 11 -10 5 0 7 5 4 10 -3 6 -8 10 -11 10 -2 0 -4
-4 -4 -10z" />
    <path d="M1036 612 c-2 -4 6 -9 20 -10 13 -1 24 3 24 8 0 12 -37 14 -44 2z" />
    <path d="M1995 600 c3 -5 11 -10 16 -10 6 0 7 5 4 10 -3 6 -11 10 -16 10 -6 0
-7 -4 -4 -10z" />
    <path d="M553 566 l5 -13 -29 3 -30 4 6 -10 c7 -11 35 -13 59 -4 21 8 21 34 0
34 l-16 0 5 -14z" />
    <path d="M700 563 c0 -7 7 -13 15 -13 8 0 15 6 15 13 0 8 -7 14 -15 14 -8 0
-15 -6 -15 -14z" />
    <path d="M795 570 c3 -5 10 -10 16 -10 5 0 9 5 9 10 0 6 -7 10 -16 10 l-15 0
6 -10z" />
    <path d="M1390 571 c0 -6 5 -13 10 -16 l10 -6 0 15 c0 9 -4 16 -10 16 -5 0
-10 -4 -10 -9z" />
    <path d="M1820 571 c0 -5 5 -13 10 -16 6 -3 10 -2 10 4 0 5 -4 13 -10 16 -5 3
-10 2 -10 -4z" />
    <path d="M886 559 c3 -5 -1 -9 -8 -9 l-13 0 14 -9 c15 -10 53 -3 46 9 -3 4
-14 10 -25 13 l-20 5 6 -9z" />
    <path d="M1080 555 l-12 -15 10 0 c5 0 12 7 16 15 3 8 4 15 2 15 -2 0 -9 -7
-16 -15z" />
    <path d="M1250 559 l0 -10 -12 7 -11 7 7 -11 c10 -17 36 -15 36 3 0 8 -4 15
-10 15 -5 0 -10 -5 -10 -11z" />
    <path d="M1890 560 c0 -7 3 -10 7 -7 3 4 3 10 0 14 -4 3 -7 0 -7 -7z" />
    <path d="M1976 555 c4 -8 13 -15 21 -15 l15 0 -12 15 c-7 8 -16 15 -21 15 -5
0 -6 -7 -3 -15z" />
    <path d="M325 550 c3 -5 10 -10 16 -10 5 0 9 5 9 10 0 6 -7 10 -16 10 l-15 0
6 -10z" />
    <path d="M610 550 c0 -5 5 -10 11 -10 5 0 7 5 4 10 -3 6 -8 10 -11 10 -2 0 -4
-4 -4 -10z" />
    <path d="M780 550 c0 -5 5 -10 11 -10 5 0 7 5 4 10 -3 6 -8 10 -11 10 -2 0 -4
-4 -4 -10z" />
    <path d="M1024 548 c-3 -4 -4 -8 -2 -9 25 -6 35 -5 35 5 0 14 -25 17 -33 4z" />
    <path d="M1125 550 l-6 -10 15 0 c9 0 16 5 16 10 0 6 -4 10 -9 10 -6 0 -13 -4
-16 -10z" />
    <path d="M1620 550 l-15 -10 12 0 c6 0 15 5 18 10 8 12 4 12 -15 0z" />
    <path d="M643 543 c4 -3 10 -3 14 0 3 4 0 7 -7 7 -7 0 -10 -3 -7 -7z" />
    <path d="M1348 543 c7 -3 16 -2 19 1 4 3 -2 6 -13 5 l-19 -1 13 -5z" />
    <path d="M867 494 c-8 -8 1 -24 12 -24 4 0 8 7 8 15 0 16 -9 20 -20 9z" />
    <path d="M916 484 l-6 -16 12 4 c15 5 23 28 10 28 -5 0 -13 -7 -16 -16z" />
    <path d="M1770 485 l0 -14 15 5 c8 4 15 7 15 9 0 2 -7 5 -15 9 l-15 5 0 -14z" />
    <path d="M1815 490 c-3 -5 -1 -10 4 -10 6 0 11 5 11 10 0 6 -2 10 -4 10 -3 0
-8 -4 -11 -10z" />
  </g>
  <g transform="translate(0.000000,129.000000) scale(0.100000,-0.100000)" fill="#f9f4cd" stroke="none">
    <path d="M250 742 c0 -5 7 -9 15 -9 8 0 12 4 9 9 -3 4 -9 8 -15 8 -5 0 -9 -4
-9 -8z" />
    <path d="M623 743 c4 -3 10 -3 14 0 3 4 0 7 -7 7 -7 0 -10 -3 -7 -7z" />
    <path d="M1624 738 l-7 -11 11 7 c12 7 16 16 8 16 -3 0 -8 -5 -12 -12z" />
    <path d="M1695 730 c3 -5 8 -10 11 -10 3 0 2 5 -1 10 -3 6 -8 10 -11 10 -3 0
-2 -4 1 -10z" />
    <path d="M402 709 c2 -7 10 -15 17 -17 l14 -4 -5 13 c-2 7 -10 15 -17 17 l-13
5 4 -14z" />
    <path d="M1195 711 c-3 -5 -2 -12 3 -15 5 -3 9 1 9 9 0 17 -3 19 -12 6z" />
    <path d="M1555 689 c-4 -6 -5 -12 -2 -15 2 -3 7 2 10 11 7 17 1 20 -8 4z" />
    <path d="M950 684 c0 -2 10 -8 21 -15 l21 -11 -4 13 c-4 11 -38 23 -38 13z" />
    <path d="M1226 682 c-3 -5 1 -9 9 -9 8 0 12 4 9 9 -3 4 -7 8 -9 8 -2 0 -6 -4
-9 -8z" />
    <path d="M1730 680 c0 -5 5 -10 10 -10 6 0 10 5 10 10 0 6 -4 10 -10 10 -5 0
-10 -4 -10 -10z" />
    <path d="M423 673 c4 -3 10 -3 14 0 3 4 0 7 -7 7 -7 0 -10 -3 -7 -7z" />
    <path d="M493 673 c4 -3 10 -3 14 0 3 4 0 7 -7 7 -7 0 -10 -3 -7 -7z" />
    <path d="M860 670 c0 -5 5 -10 10 -10 6 0 10 5 10 10 0 6 -4 10 -10 10 -5 0
-10 -4 -10 -10z" />
    <path d="M1313 673 c4 -3 10 -3 14 0 3 4 0 7 -7 7 -7 0 -10 -3 -7 -7z" />
    <path d="M1371 677 c2 -1 12 -9 22 -16 l17 -14 -6 17 c-3 9 -13 16 -22 16 -8
0 -13 -1 -11 -3z" />
    <path d="M1875 670 c3 -5 8 -10 11 -10 2 0 4 5 4 10 0 6 -5 10 -11 10 -5 0 -7
-4 -4 -10z" />
    <path d="M1955 671 c-6 -11 9 -23 19 -14 9 9 7 23 -3 23 -6 0 -12 -4 -16 -9z" />
    <path d="M2033 673 l19 -5 -5 -19 -5 -19 9 6 c5 3 9 14 9 25 l0 19 -22 -1 -23
-1 18 -5z" />
    <path d="M560 659 c0 -5 5 -7 10 -4 6 3 10 8 10 11 0 2 -4 4 -10 4 -5 0 -10
-5 -10 -11z" />
    <path d="M804 631 c1 -16 4 -27 9 -24 10 6 9 41 -2 47 -4 3 -8 -8 -7 -23z" />
    <path d="M1434 618 l-7 -11 11 7 c12 7 16 16 8 16 -3 0 -8 -5 -12 -12z" />
    <path d="M1513 615 c0 -8 4 -15 9 -15 4 0 8 7 8 15 0 8 -4 15 -8 15 -5 0 -9
-7 -9 -15z" />
    <path d="M525 610 l-20 -9 17 0 c9 -1 20 4 23 9 7 11 7 11 -20 0z" />
    <path d="M760 610 l-15 -10 12 0 c6 0 15 5 18 10 8 12 4 12 -15 0z" />
    <path d="M1360 609 c0 -5 5 -7 10 -4 6 3 10 8 10 11 0 2 -4 4 -10 4 -5 0 -10
-5 -10 -11z" />
    <path d="M1997 599 c7 -7 15 -10 18 -7 3 3 -2 9 -12 12 l-18 7 12 -12z" />
    <path d="M1727 593 c-4 -3 -7 -11 -7 -17 l0 -10 12 12 c6 6 9 14 7 17 -3 3 -9
2 -12 -2z" />
    <path d="M1940 590 l-15 -10 23 0 23 0 -6 10 c-7 12 -6 12 -25 0z" />
    <path d="M563 583 c-18 -7 -16 -20 2 -20 8 0 15 6 15 14 0 7 -1 13 -2 12 -2 0
-9 -3 -15 -6z" />
    <path d="M690 584 c0 -16 28 -50 35 -42 4 4 -2 17 -14 29 -12 13 -21 18 -21
13z" />
    <path d="M1190 578 c0 -9 5 -20 10 -23 13 -8 13 5 0 25 l-10 15 0 -17z" />
    <path d="M1810 586 c0 -2 8 -10 18 -17 l17 -14 -14 18 c-13 16 -21 21 -21 13z" />
    <path d="M494 568 l-7 -11 11 7 c7 4 12 9 12 12 0 8 -9 4 -16 -8z" />
    <path d="M790 576 c0 -2 7 -6 15 -10 8 -3 15 -1 15 4 0 6 -7 10 -15 10 -8 0
-15 -2 -15 -4z" />
    <path d="M840 570 c0 -7 3 -10 7 -7 3 4 3 10 0 14 -4 3 -7 0 -7 -7z" />
    <path d="M1000 570 c0 -7 3 -10 7 -7 3 4 3 10 0 14 -4 3 -7 0 -7 -7z" />
    <path d="M1570 570 c0 -7 3 -10 7 -7 3 4 3 10 0 14 -4 3 -7 0 -7 -7z" />
    <path d="M245 560 c-3 -5 -2 -10 4 -10 5 0 13 5 16 10 3 6 2 10 -4 10 -5 0
-13 -4 -16 -10z" />
    <path d="M1400 559 c0 -5 5 -7 10 -4 6 3 10 8 10 11 0 2 -4 4 -10 4 -5 0 -10
-5 -10 -11z" />
    <path d="M350 550 c0 -5 5 -10 10 -10 6 0 10 5 10 10 0 6 -4 10 -10 10 -5 0
-10 -4 -10 -10z" />
    <path d="M1140 550 c0 -7 3 -10 7 -7 3 4 3 10 0 14 -4 3 -7 0 -7 -7z" />
    <path d="M1310 550 c0 -5 5 -10 11 -10 5 0 7 5 4 10 -3 6 -8 10 -11 10 -2 0
-4 -4 -4 -10z" />
    <path d="M1884 548 l-7 -11 11 7 c12 7 16 16 8 16 -3 0 -8 -5 -12 -12z" />
    <path d="M783 543 c4 -3 10 -3 14 0 3 4 0 7 -7 7 -7 0 -10 -3 -7 -7z" />
    <path d="M1073 543 c4 -3 10 -3 14 0 3 4 0 7 -7 7 -7 0 -10 -3 -7 -7z" />
    <path d="M1114 538 l-7 -11 11 7 c7 4 12 9 12 12 0 8 -9 4 -16 -8z" />
    <path d="M1765 500 c-3 -5 -1 -10 4 -10 6 0 11 5 11 10 0 6 -2 10 -4 10 -3 0
-8 -4 -11 -10z" />
    <path d="M922 483 c-7 -7 -9 -13 -4 -13 4 0 16 6 26 13 l19 14 -15 0 c-7 0
-19 -6 -26 -14z" />
    <path d="M870 476 l10 -10 10 10 10 10 -20 0 -20 0 10 -10z" />
  </g>
  <g transform="translate(0.000000,129.000000) scale(0.100000,-0.100000)" fill="#f3edbe" stroke="none">
    <path d="M356 732 c-3 -5 1 -9 9 -9 8 0 12 4 9 9 -3 4 -7 8 -9 8 -2 0 -6 -4
-9 -8z" />
    <path d="M1590 720 c0 -7 3 -10 7 -7 3 4 3 10 0 14 -4 3 -7 0 -7 -7z" />
    <path d="M1700 720 c0 -5 5 -10 11 -10 5 0 7 5 4 10 -3 6 -8 10 -11 10 -2 0
-4 -4 -4 -10z" />
    <path d="M1203 705 c0 -8 4 -12 9 -9 5 3 6 10 3 15 -9 13 -12 11 -12 -6z" />
    <path d="M410 689 c0 -5 5 -7 10 -4 6 3 10 8 10 11 0 2 -4 4 -10 4 -5 0 -10
-5 -10 -11z" />
    <path d="M505 680 c-3 -5 -1 -10 4 -10 6 0 11 5 11 10 0 6 -2 10 -4 10 -3 0
-8 -4 -11 -10z" />
    <path d="M725 678 c-4 -10 -11 -15 -16 -12 -10 6 -12 -9 -3 -19 10 -9 36 21
31 36 l-5 12 -7 -17z" />
    <path d="M2003 675 c0 -9 4 -14 9 -13 5 2 10 8 10 13 0 5 -5 11 -10 13 -5 1
-9 -4 -9 -13z" />
    <path d="M545 670 l-6 -10 16 0 16 0 -6 10 c-3 6 -8 10 -10 10 -2 0 -7 -4 -10
-10z" />
    <path d="M788 667 c7 -8 9 -17 5 -20 -3 -4 -1 -7 5 -7 18 0 14 27 -4 34 l-17
6 11 -13z" />
    <path d="M865 670 l-6 -10 15 0 c9 0 16 5 16 10 0 6 -4 10 -9 10 -6 0 -13 -4
-16 -10z" />
    <path d="M913 673 c4 -3 10 -3 14 0 3 4 0 7 -7 7 -7 0 -10 -3 -7 -7z" />
    <path d="M1386 663 l-7 -18 12 12 c7 7 10 15 7 18 -3 3 -9 -2 -12 -12z" />
    <path d="M1550 670 c0 -5 5 -10 11 -10 5 0 7 5 4 10 -3 6 -8 10 -11 10 -2 0
-4 -4 -4 -10z" />
    <path d="M1800 668 c0 -11 12 -10 30 2 l15 9 -23 -2 c-12 0 -22 -5 -22 -9z" />
    <path d="M1875 670 c3 -5 8 -10 11 -10 3 0 2 5 -1 10 -3 6 -8 10 -11 10 -3 0
-2 -4 1 -10z" />
    <path d="M475 650 c3 -5 8 -10 11 -10 2 0 4 5 4 10 0 6 -5 10 -11 10 -5 0 -7
-4 -4 -10z" />
    <path d="M1030 649 c0 -5 5 -7 10 -4 6 3 10 8 10 11 0 2 -4 4 -10 4 -5 0 -10
-5 -10 -11z" />
    <path d="M1113 643 c4 -3 10 -3 14 0 3 4 0 7 -7 7 -7 0 -10 -3 -7 -7z" />
    <path d="M2033 633 c4 -3 10 -3 14 0 3 4 0 7 -7 7 -7 0 -10 -3 -7 -7z" />
    <path d="M535 620 c3 -5 8 -10 11 -10 3 0 2 5 -1 10 -3 6 -8 10 -11 10 -3 0
-2 -4 1 -10z" />
    <path d="M810 620 c0 -7 3 -10 7 -7 3 4 3 10 0 14 -4 3 -7 0 -7 -7z" />
    <path d="M1355 620 c3 -5 8 -10 11 -10 3 0 2 5 -1 10 -3 6 -8 10 -11 10 -3 0
-2 -4 1 -10z" />
    <path d="M1503 623 c4 -3 10 -3 14 0 3 4 0 7 -7 7 -7 0 -10 -3 -7 -7z" />
    <path d="M1955 620 c3 -5 8 -10 11 -10 3 0 2 5 -1 10 -3 6 -8 10 -11 10 -3 0
-2 -4 1 -10z" />
    <path d="M1450 610 c-8 -5 -12 -12 -9 -15 4 -3 12 1 19 10 14 17 11 19 -10 5z" />
    <path d="M1980 610 c0 -5 5 -10 11 -10 5 0 7 5 4 10 -3 6 -8 10 -11 10 -2 0
-4 -4 -4 -10z" />
    <path d="M1058 603 c7 -3 16 -2 19 1 4 3 -2 6 -13 5 l-19 -1 13 -5z" />
    <path d="M1884 588 l-7 -11 11 7 c12 7 16 16 8 16 -3 0 -8 -5 -12 -12z" />
    <path d="M2013 593 c4 -3 10 -3 14 0 3 4 0 7 -7 7 -7 0 -10 -3 -7 -7z" />
    <path d="M695 580 c3 -5 8 -10 11 -10 3 0 2 5 -1 10 -3 6 -8 10 -11 10 -3 0
-2 -4 1 -10z" />
    <path d="M1715 580 c-3 -5 -1 -10 4 -10 6 0 11 5 11 10 0 6 -2 10 -4 10 -3 0
-8 -4 -11 -10z" />
    <path d="M1953 583 c4 -3 10 -3 14 0 3 4 0 7 -7 7 -7 0 -10 -3 -7 -7z" />
    <path d="M405 570 c3 -5 8 -10 11 -10 2 0 4 5 4 10 0 6 -5 10 -11 10 -5 0 -7
-4 -4 -10z" />
    <path d="M254 558 l-7 -11 11 7 c12 7 16 16 8 16 -3 0 -8 -5 -12 -12z" />
    <path d="M546 562 c-3 -5 1 -9 9 -9 8 0 12 4 9 9 -3 4 -7 8 -9 8 -2 0 -6 -4
-9 -8z" />
    <path d="M613 563 c-15 -5 -17 -23 -4 -23 5 0 11 7 15 15 3 8 4 15 3 14 -1 0
-8 -3 -14 -6z" />
    <path d="M711 561 l-13 -8 10 -7 c6 -3 14 -1 17 5 9 14 2 20 -14 10z" />
    <path d="M1000 562 c0 -12 19 -26 26 -19 2 2 -2 10 -11 17 l-15 12 0 -10z" />
    <path d="M1200 562 c0 -12 19 -26 26 -19 2 2 -2 10 -11 17 l-15 12 0 -10z" />
    <path d="M1973 563 c4 -3 10 -3 14 0 3 4 0 7 -7 7 -7 0 -10 -3 -7 -7z" />
    <path d="M340 550 c0 -5 4 -10 9 -10 6 0 13 5 16 10 l6 10 -15 0 c-9 0 -16 -4
-16 -10z" />
    <path d="M920 550 l-15 -10 12 0 c6 0 15 5 18 10 8 12 4 12 -15 0z" />
    <path d="M1065 550 c3 -5 8 -10 11 -10 3 0 2 5 -1 10 -3 6 -8 10 -11 10 -3 0
-2 -4 1 -10z" />
    <path d="M1315 550 c3 -5 8 -10 11 -10 3 0 2 5 -1 10 -3 6 -8 10 -11 10 -3 0
-2 -4 1 -10z" />
    <path d="M1605 550 c3 -5 8 -10 11 -10 3 0 2 5 -1 10 -3 6 -8 10 -11 10 -3 0
-2 -4 1 -10z" />
    <path d="M1950 544 l0 -15 10 6 c6 4 8 11 5 16 -9 14 -15 11 -15 -7z" />
    <path d="M2020 539 c0 -5 5 -7 10 -4 6 3 10 8 10 11 0 2 -4 4 -10 4 -5 0 -10
-5 -10 -11z" />
    <path d="M848 508 l-7 -16 14 -6 c8 -3 17 0 21 6 l7 11 -11 -7 -10 -6 -4 17
-4 18 -6 -17z" />
    <path d="M926 483 l-7 -18 12 12 c7 7 10 15 7 18 -3 3 -9 -2 -12 -12z" />
  </g>
  <g transform="translate(0.000000,129.000000) scale(0.100000,-0.100000)" fill="#f2e69f" stroke="none">
    <path d="M273 733 c4 -3 10 -3 14 0 3 4 0 7 -7 7 -7 0 -10 -3 -7 -7z" />
    <path d="M290 700 c-6 -11 -8 -20 -6 -20 3 0 10 9 16 20 6 11 8 20 6 20 -3 0
-10 -9 -16 -20z" />
    <path d="M1613 713 c4 -3 10 -3 14 0 3 4 0 7 -7 7 -7 0 -10 -3 -7 -7z" />
    <path d="M1580 680 c0 -7 3 -10 7 -7 3 4 3 10 0 14 -4 3 -7 0 -7 -7z" />
    <path d="M1730 679 c0 -5 5 -7 10 -4 6 3 10 8 10 11 0 2 -4 4 -10 4 -5 0 -10
-5 -10 -11z" />
    <path d="M1200 665 c-20 -24 -6 -28 15 -5 10 11 13 20 8 20 -6 0 -16 -7 -23
-15z" />
    <path d="M1775 670 c3 -5 8 -10 11 -10 3 0 2 5 -1 10 -3 6 -8 10 -11 10 -3 0
-2 -4 1 -10z" />
    <path d="M1803 663 c4 -3 10 -3 14 0 3 4 0 7 -7 7 -7 0 -10 -3 -7 -7z" />
    <path d="M411 644 l1 -19 5 13 c3 7 2 16 -1 19 -3 4 -6 -2 -5 -13z" />
    <path d="M480 646 c0 -8 5 -18 10 -21 6 -3 10 1 10 9 0 8 -4 18 -10 21 -5 3
-10 -1 -10 -9z" />
    <path d="M950 649 l0 -10 -12 7 -11 7 7 -12 c4 -6 11 -9 16 -6 4 3 11 -1 13
-7 3 -7 6 -3 6 10 1 12 -3 22 -9 22 -5 0 -10 -5 -10 -11z" />
    <path d="M1089 647 c6 -8 8 -17 4 -20 -3 -4 -1 -7 5 -7 14 0 14 2 6 24 -3 9
-11 16 -16 16 l-10 0 11 -13z" />
    <path d="M1310 640 c0 -11 4 -20 8 -20 4 0 8 9 8 20 0 11 -4 20 -8 20 -4 0 -8
-9 -8 -20z" />
    <path d="M281 645 c0 -5 4 -19 9 -30 l9 -20 0 15 c0 8 -4 22 -9 30 -5 8 -9 11
-9 5z" />
    <path d="M713 620 l0 -30 14 11 13 12 -12 16 c-7 9 -13 17 -14 19 0 1 -1 -11
-1 -28z" />
    <path d="M1783 636 c0 -15 21 -16 34 -1 l8 8 -12 -7 -13 -7 0 10 c0 6 -4 11
-8 11 -5 0 -9 -6 -9 -14z" />
    <path d="M780 624 l0 -15 10 6 c6 4 8 11 5 16 -9 14 -15 11 -15 -7z" />
    <path d="M1376 631 c-4 -7 -5 -15 -2 -18 9 -9 19 4 14 18 l-4 13 -8 -13z" />
    <path d="M550 619 c0 -5 5 -7 10 -4 6 3 10 8 10 11 0 2 -4 4 -10 4 -5 0 -10
-5 -10 -11z" />
    <path d="M1121 614 l1 -19 5 13 c3 7 2 16 -1 19 -3 4 -6 -2 -5 -13z" />
    <path d="M483 603 c4 -3 10 -3 14 0 3 4 0 7 -7 7 -7 0 -10 -3 -7 -7z" />
    <path d="M1090 606 c0 -2 7 -9 15 -16 l15 -13 -6 17 c-3 9 -10 16 -15 16 -5 0
-9 -2 -9 -4z" />
    <path d="M1310 599 c0 -5 5 -7 10 -4 6 3 10 8 10 11 0 2 -4 4 -10 4 -5 0 -10
-5 -10 -11z" />
    <path d="M1704 598 l-7 -11 11 7 c12 7 16 16 8 16 -3 0 -8 -5 -12 -12z" />
    <path d="M1730 600 c0 -7 3 -10 7 -7 3 4 3 10 0 14 -4 3 -7 0 -7 -7z" />
    <path d="M1896 588 c3 -5 10 -6 15 -3 13 9 11 12 -6 12 -8 0 -12 -4 -9 -9z" />
    <path d="M933 574 c-3 -8 -1 -20 5 -26 l10 -10 -1 26 c-1 14 -3 26 -5 26 -1 0
-5 -7 -9 -16z" />
    <path d="M290 570 c0 -5 5 -10 11 -10 5 0 7 5 4 10 -3 6 -8 10 -11 10 -2 0 -4
-4 -4 -10z" />
    <path d="M1090 571 c0 -5 5 -13 10 -16 6 -3 10 -2 10 4 0 5 -4 13 -10 16 -5 3
-10 2 -10 -4z" />
    <path d="M1670 570 l-15 -10 12 0 c6 0 15 5 18 10 8 12 4 12 -15 0z" />
    <path d="M2024 568 l-7 -11 11 7 c12 7 16 16 8 16 -3 0 -8 -5 -12 -12z" />
    <path d="M623 563 c4 -3 10 -3 14 0 3 4 0 7 -7 7 -7 0 -10 -3 -7 -7z" />
    <path d="M960 560 c0 -7 3 -10 7 -7 3 4 3 10 0 14 -4 3 -7 0 -7 -7z" />
    <path d="M1216 562 c-3 -5 1 -9 9 -9 8 0 12 4 9 9 -3 4 -7 8 -9 8 -2 0 -6 -4
-9 -8z" />
  </g>
  <g transform="translate(0.000000,129.000000) scale(0.100000,-0.100000)" fill="#f9f2b1" stroke="none">
    <path d="M345 720 c3 -5 11 -10 16 -10 6 0 7 5 4 10 -3 6 -11 10 -16 10 -6 0
-7 -4 -4 -10z" />
    <path d="M1195 691 c-3 -5 -1 -13 5 -16 l11 -7 -12 -14 c-6 -8 -9 -17 -5 -21
3 -3 6 -1 6 5 0 7 7 12 17 12 l16 0 -16 18 c-10 10 -14 22 -10 25 3 4 4 7 0 7
-3 0 -8 -4 -12 -9z" />
    <path d="M1733 683 c4 -3 10 -3 14 0 3 4 0 7 -7 7 -7 0 -10 -3 -7 -7z" />
    <path d="M725 660 c3 -5 8 -10 11 -10 2 0 4 5 4 10 0 6 -5 10 -11 10 -5 0 -7
-4 -4 -10z" />
    <path d="M875 660 c3 -5 8 -10 11 -10 2 0 4 5 4 10 0 6 -5 10 -11 10 -5 0 -7
-4 -4 -10z" />
    <path d="M1083 652 c10 -10 14 -22 10 -27 l-8 -8 13 7 13 8 -17 19 c-9 10 -19
19 -22 19 -3 0 2 -8 11 -18z" />
    <path d="M1857 659 c7 -7 15 -10 18 -7 3 3 -2 9 -12 12 l-18 7 12 -12z" />
    <path d="M1975 660 c4 -6 11 -8 16 -5 14 9 11 15 -7 15 l-15 0 6 -10z" />
    <path d="M487 640 c3 -11 9 -20 15 -20 l9 0 -11 20 c-6 11 -12 20 -14 20 -2 0
-2 -9 1 -20z" />
    <path d="M774 634 c-2 -29 12 -32 19 -5 l5 20 -12 4 -11 4 -1 -23z" />
    <path d="M845 649 c-4 -6 -5 -12 -2 -15 2 -3 7 2 10 11 7 17 1 20 -8 4z" />
    <path d="M1370 625 l-12 -15 10 0 c5 0 12 7 16 15 3 8 4 15 2 15 -2 0 -9 -7
-16 -15z" />
    <path d="M545 620 c-3 -5 -1 -10 4 -10 6 0 11 5 11 10 0 6 -2 10 -4 10 -3 0
-8 -4 -11 -10z" />
    <path d="M1783 590 c0 -25 2 -35 4 -22 2 12 2 32 0 45 -2 12 -4 2 -4 -23z" />
    <path d="M724 608 l-7 -11 11 7 c7 4 12 9 12 12 0 8 -9 4 -16 -8z" />
    <path d="M1911 604 l1 -19 5 13 c3 7 2 16 -1 19 -3 4 -6 -2 -5 -13z" />
    <path d="M1314 598 l-7 -11 11 7 c12 7 16 16 8 16 -3 0 -8 -5 -12 -12z" />
    <path d="M1033 579 l1 -26 13 0 13 0 -9 11 c-4 6 -11 18 -14 26 l-6 15 2 -26z" />
    <path d="M1724 588 l-7 -11 11 7 c12 7 16 16 8 16 -3 0 -8 -5 -12 -12z" />
    <path d="M720 570 c0 -6 7 -10 15 -10 8 0 15 2 15 4 0 2 -7 6 -15 10 -8 3 -15
1 -15 -4z" />
    <path d="M1090 571 c0 -6 4 -13 10 -16 l10 -6 -6 15 c-7 18 -14 21 -14 7z" />
    <path d="M305 560 c3 -5 11 -10 16 -10 6 0 7 5 4 10 -3 6 -11 10 -16 10 -6 0
-7 -4 -4 -10z" />
    <path d="M655 560 c3 -5 8 -10 11 -10 3 0 2 5 -1 10 -3 6 -8 10 -11 10 -3 0
-2 -4 1 -10z" />
  </g>
  <g transform="translate(0.000000,129.000000) scale(0.100000,-0.100000)" fill="#f9f5da" stroke="none">
    <path d="M246 741 c-4 -7 -5 -15 -2 -18 9 -9 19 4 14 18 l-4 13 -8 -13z" />
    <path d="M610 730 c0 -11 2 -20 4 -20 2 0 6 9 9 20 3 11 1 20 -4 20 -5 0 -9
-9 -9 -20z" />
    <path d="M510 680 c0 -5 7 -10 15 -10 8 0 15 5 15 10 0 6 -7 10 -15 10 -8 0
-15 -4 -15 -10z" />
    <path d="M730 680 c0 -5 9 -10 21 -10 l20 0 -6 10 c-3 6 -13 10 -21 10 -8 0
-14 -4 -14 -10z" />
    <path d="M886 682 c-3 -5 1 -9 9 -9 8 0 12 4 9 9 -3 4 -7 8 -9 8 -2 0 -6 -4
-9 -8z" />
    <path d="M965 680 c-3 -5 -1 -10 4 -10 6 0 11 5 11 10 0 6 -2 10 -4 10 -3 0
-8 -4 -11 -10z" />
    <path d="M1032 679 c-25 -9 -26 -29 -2 -37 l13 -5 -6 16 -6 16 22 3 c12 2 18
6 12 9 -5 4 -21 3 -33 -2z" />
    <path d="M1336 681 c-3 -5 5 -8 19 -8 14 0 22 3 19 8 -3 5 -11 9 -19 9 -8 0
-16 -4 -19 -9z" />
    <path d="M2003 683 c4 -3 10 -3 14 0 3 4 0 7 -7 7 -7 0 -10 -3 -7 -7z" />
    <path d="M1160 670 c0 -5 5 -10 10 -10 6 0 10 5 10 10 0 6 -4 10 -10 10 -5 0
-10 -4 -10 -10z" />
    <path d="M2043 673 c4 -3 10 -3 14 0 3 4 0 7 -7 7 -7 0 -10 -3 -7 -7z" />
    <path d="M705 660 c3 -5 8 -10 11 -10 3 0 2 5 -1 10 -3 6 -8 10 -11 10 -3 0
-2 -4 1 -10z" />
    <path d="M1240 659 c0 -5 5 -7 10 -4 6 3 10 8 10 11 0 2 -4 4 -10 4 -5 0 -10
-5 -10 -11z" />
    <path d="M1430 611 c0 -5 5 -13 10 -16 6 -3 10 -2 10 4 0 5 -4 13 -10 16 -5 3
-10 2 -10 -4z" />
    <path d="M1397 586 c-3 -8 -2 -18 4 -22 16 -9 22 2 11 21 l-9 17 -6 -16z" />
    <path d="M563 564 l-12 -26 15 6 c9 3 18 6 20 6 2 0 4 9 4 20 0 28 -13 25 -27
-6z" />
    <path d="M405 570 c3 -5 8 -10 11 -10 3 0 2 5 -1 10 -3 6 -8 10 -11 10 -3 0
-2 -4 1 -10z" />
    <path d="M1000 560 c0 -5 9 -14 20 -20 11 -6 20 -9 20 -8 0 2 -9 11 -20 21
-11 9 -20 13 -20 7z" />
    <path d="M1253 555 c0 -8 4 -15 9 -15 4 0 8 7 8 15 0 8 -4 15 -8 15 -5 0 -9
-7 -9 -15z" />
    <path d="M240 550 c0 -5 5 -10 10 -10 6 0 10 5 10 10 0 6 -4 10 -10 10 -5 0
-10 -4 -10 -10z" />
    <path d="M600 550 c0 -5 5 -10 11 -10 5 0 7 5 4 10 -3 6 -8 10 -11 10 -2 0 -4
-4 -4 -10z" />
    <path d="M660 550 c0 -5 5 -10 10 -10 6 0 10 5 10 10 0 6 -4 10 -10 10 -5 0
-10 -4 -10 -10z" />
    <path d="M706 548 c3 -5 10 -6 15 -3 13 9 11 12 -6 12 -8 0 -12 -4 -9 -9z" />
    <path d="M383 543 c4 -3 10 -3 14 0 3 4 0 7 -7 7 -7 0 -10 -3 -7 -7z" />
    <path d="M1950 540 c0 -7 3 -10 7 -7 3 4 3 10 0 14 -4 3 -7 0 -7 -7z" />
    <path d="M2015 540 c3 -5 8 -10 11 -10 2 0 4 5 4 10 0 6 -5 10 -11 10 -5 0 -7
-4 -4 -10z" />
    <path d="M843 493 c4 -3 10 -3 14 0 3 4 0 7 -7 7 -7 0 -10 -3 -7 -7z" />
    <path d="M1760 491 c0 -6 5 -13 10 -16 l10 -6 0 15 c0 9 -4 16 -10 16 -5 0
-10 -4 -10 -9z" />
    <path d="M1820 490 c0 -5 5 -10 10 -10 6 0 10 5 10 10 0 6 -4 10 -10 10 -5 0
-10 -4 -10 -10z" />
  </g>
  <g transform="translate(0.000000,129.000000) scale(0.100000,-0.100000)" fill="#e5e0a2" stroke="none">
    <path d="M303 733 c4 -3 10 -3 14 0 3 4 0 7 -7 7 -7 0 -10 -3 -7 -7z" />
    <path d="M340 725 c0 -8 29 -12 39 -5 l13 8 -26 0 c-14 0 -26 -2 -26 -3z" />
    <path d="M633 723 c4 -3 10 -3 14 0 3 4 0 7 -7 7 -7 0 -10 -3 -7 -7z" />
    <path d="M397 706 l-6 -16 20 -11 21 -11 -13 24 c-16 31 -16 31 -22 14z" />
    <path d="M1694 708 l-7 -11 11 7 c12 7 16 16 8 16 -3 0 -8 -5 -12 -12z" />
    <path d="M530 674 c0 -2 9 -8 20 -14 l20 -11 0 9 c0 6 -9 12 -20 15 -11 3 -20
3 -20 1z" />
    <path d="M870 670 l-15 -10 18 0 c9 0 17 5 17 10 0 12 -1 12 -20 0z" />
    <path d="M1065 670 c3 -5 8 -10 11 -10 3 0 2 5 -1 10 -3 6 -8 10 -11 10 -3 0
-2 -4 1 -10z" />
    <path d="M1335 670 c3 -5 8 -10 11 -10 2 0 4 5 4 10 0 6 -5 10 -11 10 -5 0 -7
-4 -4 -10z" />
    <path d="M1961 658 l-13 -23 13 13 c7 6 24 12 39 13 l25 0 -20 9 c-29 12 -29
12 -44 -12z" />
    <path d="M715 659 c-4 -6 -5 -12 -2 -15 2 -3 7 2 10 11 7 17 1 20 -8 4z" />
    <path d="M1313 653 c4 -3 10 -3 14 0 3 4 0 7 -7 7 -7 0 -10 -3 -7 -7z" />
    <path d="M793 643 c4 -3 10 -3 14 0 3 4 0 7 -7 7 -7 0 -10 -3 -7 -7z" />
    <path d="M1104 638 l-7 -11 11 7 c12 7 16 16 8 16 -3 0 -8 -5 -12 -12z" />
    <path d="M844 624 c3 -23 13 -26 18 -6 l5 19 -12 0 c-7 0 -12 -6 -11 -13z" />
    <path d="M1363 613 c4 -3 10 -3 14 0 3 4 0 7 -7 7 -7 0 -10 -3 -7 -7z" />
    <path d="M1465 610 c3 -5 8 -10 11 -10 2 0 4 5 4 10 0 6 -5 10 -11 10 -5 0 -7
-4 -4 -10z" />
    <path d="M1985 610 c3 -5 8 -10 11 -10 3 0 2 5 -1 10 -3 6 -8 10 -11 10 -3 0
-2 -4 1 -10z" />
    <path d="M330 560 l-25 -6 21 -6 c12 -3 27 -2 34 2 18 11 -1 18 -30 10z" />
    <path d="M497 559 c7 -7 15 -10 18 -7 3 3 -2 9 -12 12 l-18 7 12 -12z" />
    <path d="M720 559 c0 -5 5 -7 10 -4 6 3 10 8 10 11 0 2 -4 4 -10 4 -5 0 -10
-5 -10 -11z" />
    <path d="M1200 567 c0 -2 6 -10 14 -16 l14 -12 8 13 7 13 -8 -7 c-4 -4 -14 -3
-22 3 -7 6 -13 9 -13 6z" />
    <path d="M1951 554 l1 -19 5 13 c3 7 2 16 -1 19 -3 4 -6 -2 -5 -13z" />
    <path d="M530 556 c0 -2 7 -7 16 -10 l15 -6 -6 10 c-6 10 -25 14 -25 6z" />
    <path d="M1024 548 l-7 -11 11 7 c7 4 12 9 12 12 0 8 -9 4 -16 -8z" />
    <path d="M1053 553 c4 -3 10 -3 14 0 3 4 0 7 -7 7 -7 0 -10 -3 -7 -7z" />
    <path d="M1638 548 c5 -5 16 -8 23 -6 l13 4 -23 7 -24 6 11 -11z" />
    <path d="M1793 523 c4 -3 10 -3 14 0 3 4 0 7 -7 7 -7 0 -10 -3 -7 -7z" />
    <path d="M885 490 c3 -5 8 -10 11 -10 2 0 4 5 4 10 0 6 -5 10 -11 10 -5 0 -7
-4 -4 -10z" />
  </g>
  <g transform="translate(0.000000,129.000000) scale(0.100000,-0.100000)" fill="#ece9aa" stroke="none">
    <path d="M380 726 c0 -2 7 -7 16 -10 l15 -6 -6 10 c-6 10 -25 14 -25 6z" />
    <path d="M364 711 c7 -11 46 -35 46 -28 0 3 -12 12 -26 22 -15 9 -23 12 -20 6z" />
    <path d="M1695 700 c3 -5 8 -10 11 -10 3 0 2 5 -1 10 -3 6 -8 10 -11 10 -3 0
-2 -4 1 -10z" />
    <path d="M725 670 c-3 -5 -2 -10 4 -10 5 0 13 5 16 10 3 6 2 10 -4 10 -5 0
-13 -4 -16 -10z" />
    <path d="M963 673 c4 -3 10 -3 14 0 3 4 0 7 -7 7 -7 0 -10 -3 -7 -7z" />
    <path d="M854 658 l-7 -11 11 7 c12 7 16 16 8 16 -3 0 -8 -5 -12 -12z" />
    <path d="M1874 658 l-7 -11 11 7 c12 7 16 16 8 16 -3 0 -8 -5 -12 -12z" />
    <path d="M1550 630 c0 -7 3 -10 7 -7 3 4 3 10 0 14 -4 3 -7 0 -7 -7z" />
    <path d="M460 620 c0 -7 3 -10 7 -7 3 4 3 10 0 14 -4 3 -7 0 -7 -7z" />
    <path d="M543 613 c4 -3 10 -3 14 0 3 4 0 7 -7 7 -7 0 -10 -3 -7 -7z" />
    <path d="M773 613 c4 -3 10 -3 14 0 3 4 0 7 -7 7 -7 0 -10 -3 -7 -7z" />
    <path d="M1016 602 c-3 -5 1 -9 9 -9 8 0 15 4 15 9 0 4 -4 8 -9 8 -6 0 -12 -4
-15 -8z" />
    <path d="M2026 602 c-3 -5 1 -9 9 -9 8 0 12 4 9 9 -3 4 -7 8 -9 8 -2 0 -6 -4
-9 -8z" />
    <path d="M1714 578 l-7 -11 11 7 c12 7 16 16 8 16 -3 0 -8 -5 -12 -12z" />
    <path d="M724 558 l-7 -11 11 7 c7 4 12 9 12 12 0 8 -9 4 -16 -8z" />
    <path d="M878 493 c7 -3 16 -2 19 1 4 3 -2 6 -13 5 l-19 -1 13 -5z" />
  </g>
  <g transform="translate(0.000000,129.000000) scale(0.100000,-0.100000)" fill="#ebe5bd" stroke="none">
    <path d="M250 730 c0 -7 3 -10 7 -7 3 4 3 10 0 14 -4 3 -7 0 -7 -7z" />
    <path d="M518 673 c7 -3 16 -2 19 1 4 3 -2 6 -13 5 l-19 -1 13 -5z" />
    <path d="M743 673 c9 -2 25 -2 35 0 9 3 1 5 -18 5 -19 0 -27 -2 -17 -5z" />
    <path d="M903 673 c4 -3 10 -3 14 0 3 4 0 7 -7 7 -7 0 -10 -3 -7 -7z" />
    <path d="M975 670 c3 -5 8 -10 11 -10 3 0 2 5 -1 10 -3 6 -8 10 -11 10 -3 0
-2 -4 1 -10z" />
    <path d="M1027 673 c-10 -10 -8 -23 4 -23 5 0 8 4 4 9 -3 5 5 12 17 14 l23 4
-21 2 c-11 0 -24 -2 -27 -6z" />
    <path d="M1240 670 c0 -5 5 -10 10 -10 6 0 10 5 10 10 0 6 -4 10 -10 10 -5 0
-10 -4 -10 -10z" />
    <path d="M1328 673 c7 -3 16 -2 19 1 4 3 -2 6 -13 5 l-19 -1 13 -5z" />
    <path d="M1363 673 c4 -3 10 -3 14 0 3 4 0 7 -7 7 -7 0 -10 -3 -7 -7z" />
    <path d="M1973 673 c4 -3 10 -3 14 0 3 4 0 7 -7 7 -7 0 -10 -3 -7 -7z" />
    <path d="M1510 610 l-15 -10 12 0 c6 0 15 5 18 10 8 12 4 12 -15 0z" />
    <path d="M562 559 l-13 -20 21 11 c11 6 20 15 20 20 0 17 -15 11 -28 -11z" />
    <path d="M803 573 c4 -3 10 -3 14 0 3 4 0 7 -7 7 -7 0 -10 -3 -7 -7z" />
    <path d="M1395 570 c3 -5 8 -10 11 -10 2 0 4 5 4 10 0 6 -5 10 -11 10 -5 0 -7
-4 -4 -10z" />
    <path d="M250 550 c0 -7 3 -10 7 -7 3 4 3 10 0 14 -4 3 -7 0 -7 -7z" />
    <path d="M655 550 c-3 -5 -1 -10 4 -10 6 0 11 5 11 10 0 6 -2 10 -4 10 -3 0
-8 -4 -11 -10z" />
    <path d="M1254 548 l-7 -11 11 7 c7 4 12 9 12 12 0 8 -9 4 -16 -8z" />
    <path d="M2008 543 c7 -3 16 -2 19 1 4 3 -2 6 -13 5 l-19 -1 13 -5z" />
    <path d="M1770 490 c0 -7 3 -10 7 -7 3 4 3 10 0 14 -4 3 -7 0 -7 -7z" />
  </g>
  <g transform="translate(0.000000,129.000000) scale(0.100000,-0.100000)" fill="#f0ecca" stroke="none">
    <path d="M610 730 c0 -7 3 -10 7 -7 3 4 3 10 0 14 -4 3 -7 0 -7 -7z" />
    <path d="M1250 670 c0 -7 3 -10 7 -7 3 4 3 10 0 14 -4 3 -7 0 -7 -7z" />
    <path d="M1163 663 c4 -3 10 -3 14 0 3 4 0 7 -7 7 -7 0 -10 -3 -7 -7z" />
    <path d="M1515 620 c3 -5 8 -10 11 -10 3 0 2 5 -1 10 -3 6 -8 10 -11 10 -3 0
-2 -4 1 -10z" />
    <path d="M1435 610 c3 -5 8 -10 11 -10 3 0 2 5 -1 10 -3 6 -8 10 -11 10 -3 0
-2 -4 1 -10z" />
    <path d="M573 565 c0 -8 4 -12 9 -9 4 3 8 9 8 15 0 5 -4 9 -8 9 -5 0 -9 -7 -9
-15z" />
    <path d="M1393 573 c4 -3 10 -3 14 0 3 4 0 7 -7 7 -7 0 -10 -3 -7 -7z" />
    <path d="M1255 560 c3 -5 8 -10 11 -10 3 0 2 5 -1 10 -3 6 -8 10 -11 10 -3 0
-2 -4 1 -10z" />
    <path d="M1820 490 c0 -7 3 -10 7 -7 3 4 3 10 0 14 -4 3 -7 0 -7 -7z" />
  </g>
  <g transform="translate(0.000000,129.000000) scale(0.100000,-0.100000)" fill="#ecdf7f" stroke="none">
    <path d="M1200 665 c0 -8 5 -15 10 -15 6 0 10 7 10 15 0 8 -4 15 -10 15 -5 0
-10 -7 -10 -15z" />
    <path d="M950 650 c0 -7 3 -10 7 -7 3 4 3 10 0 14 -4 3 -7 0 -7 -7z" />
  </g>
</svg>